<?xml version="1.0" encoding="UTF-8"?>
<svg width="16px" height="16px" viewBox="0 0 16 16" version="1.1" xmlns="http://www.w3.org/2000/svg" xmlns:xlink="http://www.w3.org/1999/xlink">
    <!-- Generator: Sketch 53.1 (72631) - https://sketchapp.com -->
    <title>Slice 1</title>
    <desc>Created with Sketch.</desc>
    <g id="Page-1" stroke="none" stroke-width="1" fill="none" fill-rule="evenodd" stroke-linecap="round" stroke-linejoin="round">
        <g id="icon" transform="translate(1.000000, 1.000000)" stroke="#E2EDF2" stroke-width="0.6">
            <path d="M13.8825647,7.04397647 C13.8825647,10.8206824 10.8206824,13.8825647 7.04397647,13.8825647 C3.26727059,13.8825647 0.206211765,10.8206824 0.206211765,7.04397647 C0.206211765,3.26727059 3.26727059,0.206211765 7.04397647,0.206211765 C10.8206824,0.206211765 13.8825647,3.26727059 13.8825647,7.04397647 Z" id="Stroke-1"></path>
            <path d="M12.6126824,7.04397647 C12.6126824,10.1190353 10.1198588,12.6126824 7.04397647,12.6126824 C3.96891765,12.6126824 1.47609412,10.1190353 1.47609412,7.04397647 C1.47609412,3.96891765 3.96891765,1.47609412 7.04397647,1.47609412 C9.78056471,1.47609412 12.0551529,3.44927059 12.5245647,6.04997647 C12.5822118,6.3728 12.6126824,6.70468235 12.6126824,7.04397647 Z" id="Stroke-3"></path>
            <path d="M9.00529412,7.04397647 C9.00529412,8.12444706 8.13070588,8.99985882 7.05023529,8.99985882 C5.97058824,8.99985882 5.09517647,8.12444706 5.09517647,7.04397647 C5.09517647,5.96432941 5.97058824,5.08891765 7.05023529,5.08891765 C8.13070588,5.08891765 9.00529412,5.96432941 9.00529412,7.04397647 Z" id="Stroke-5"></path>
            <path d="M6.05582353,1.56923529 C6.05582353,2.11605882 6.49805882,2.59947059 7.04405882,2.59947059" id="Stroke-7"></path>
            <path d="M8.03254118,1.56923529 C8.03254118,2.11605882 7.59030588,2.59947059 7.04430588,2.59947059" id="Stroke-9"></path>
            <path d="M6.05582353,1.56923529 C6.05582353,1.56923529 6.54994118,1.47617647 7.04405882,1.47617647 C7.59747059,1.47617647 8.03229412,1.56923529 8.03229412,1.56923529" id="Stroke-11"></path>
            <path d="M6.05582353,12.5192118 C6.05582353,11.9723882 6.49805882,11.4889765 7.04405882,11.4889765" id="Stroke-13"></path>
            <path d="M8.03254118,12.5192118 C8.03254118,11.9723882 7.59030588,11.4889765 7.04430588,11.4889765" id="Stroke-15"></path>
            <path d="M6.05582353,12.5192118 C6.05582353,12.5192118 6.54994118,12.6122706 7.04405882,12.6122706 C7.59747059,12.6122706 8.03229412,12.5192118 8.03229412,12.5192118" id="Stroke-17"></path>
            <path d="M12.5129529,6.05598824 C11.9669529,6.05598824 11.4827176,6.49822353 11.4827176,7.04422353" id="Stroke-19"></path>
            <path d="M12.5129529,8.03237647 C11.9669529,8.03237647 11.4827176,7.59014118 11.4827176,7.04414118" id="Stroke-21"></path>
            <path d="M12.5129529,6.05598824 C12.5129529,6.05598824 12.6068353,6.55010588 12.6068353,7.04422353 C12.6068353,7.59681176 12.5129529,8.03245882 12.5129529,8.03245882" id="Stroke-23"></path>
            <path d="M1.56297647,6.05598824 C2.1098,6.05598824 2.59321176,6.49822353 2.59321176,7.04422353" id="Stroke-25"></path>
            <path d="M1.56297647,8.03237647 C2.1098,8.03237647 2.59321176,7.59014118 2.59321176,7.04414118" id="Stroke-27"></path>
            <path d="M1.56297647,6.05598824 C1.56297647,6.05598824 1.46991765,6.55010588 1.46991765,7.04422353 C1.46991765,7.59681176 1.56297647,8.03245882 1.56297647,8.03245882" id="Stroke-29"></path>
            <path d="M10.2273294,2.47841176 C9.84109412,2.86464706 9.81144706,3.51935294 10.1976824,3.90558824" id="Stroke-31"></path>
            <path d="M11.6246941,3.87610588 C11.2384588,4.26234118 10.5837529,4.29198824 10.1975176,3.90575294" id="Stroke-33"></path>
            <path d="M10.2273294,2.47841176 C10.2273294,2.47841176 10.6423882,2.76170588 10.9923882,3.11088235 C11.3827412,3.50205882 11.6248588,3.87594118 11.6248588,3.87594118" id="Stroke-35"></path>
            <path d="M2.48417647,10.2210706 C2.87041176,9.83483529 3.52511765,9.80518824 3.91135294,10.1914235" id="Stroke-37"></path>
            <path d="M3.88195294,11.6188471 C4.26818824,11.2326118 4.29783529,10.5779059 3.9116,10.1916706" id="Stroke-39"></path>
            <path d="M2.48417647,10.2210706 C2.48417647,10.2210706 2.76747059,10.6361294 3.11747059,10.9861294 C3.50782353,11.3764824 3.88170588,11.6186 3.88170588,11.6186" id="Stroke-41"></path>
            <path d="M11.6206588,10.2167059 C11.2344235,9.83047059 10.5797176,9.80082353 10.1934824,10.1870588" id="Stroke-43"></path>
            <path d="M10.2228824,11.6144 C9.83664706,11.2281647 9.807,10.5734588 10.1932353,10.1872235" id="Stroke-45"></path>
            <path d="M11.6206588,10.2167059 C11.6206588,10.2167059 11.3373647,10.6317647 10.9873647,10.9817647 C10.5970118,11.3721176 10.2231294,11.6142353 10.2231294,11.6142353" id="Stroke-47"></path>
            <path d="M3.87750588,2.47396471 C4.26374118,2.8602 4.29338824,3.51490588 3.90715294,3.90114118" id="Stroke-49"></path>
            <path d="M2.48022353,3.87174118 C2.86645882,4.25797647 3.52116471,4.28762353 3.9074,3.90138824" id="Stroke-51"></path>
            <path d="M3.87750588,2.47396471 C3.87750588,2.47396471 3.46244706,2.75725882 3.11244706,3.10725882 C2.72209412,3.49761176 2.47997647,3.87149412 2.47997647,3.87149412" id="Stroke-53"></path>
        </g>
    </g>
</svg>