<?xml version="1.0" encoding="UTF-8"?>
<svg width="16px" height="16px" viewBox="0 0 16 16" version="1.1" xmlns="http://www.w3.org/2000/svg" xmlns:xlink="http://www.w3.org/1999/xlink">
    <!-- Generator: Sketch 53.1 (72631) - https://sketchapp.com -->
    <title>Slice 1</title>
    <desc>Created with Sketch.</desc>
    <g id="Page-1" stroke="none" stroke-width="1" fill="none" fill-rule="evenodd" stroke-linecap="round" stroke-linejoin="round">
        <g id="icon" transform="translate(1.000000, 1.000000)" stroke="#E2EDF2" stroke-width="0.6">
            <path d="M13.3704118,4.44310588 C13.7006471,5.24522353 13.8826471,6.12310588 13.8826471,7.04381176 C13.8826471,10.8213412 10.8207647,13.8824 7.04405882,13.8824 C3.26735294,13.8824 0.206294118,10.8213412 0.206294118,7.04381176 C0.206294118,3.26710588 3.26735294,0.206047059 7.04405882,0.206047059 C7.72594118,0.206047059 8.38394118,0.305694118 9.00570588,0.491811765" id="Stroke-1"></path>
            <path d="M12.4749059,5.80868235 C12.4930235,5.88856471 12.5094941,5.96844706 12.5243176,6.04997647 C12.5819647,6.3728 12.6124353,6.70468235 12.6124353,7.04397647 C12.6124353,10.1190353 10.1196118,12.6126824 7.04455294,12.6126824 C3.96867059,12.6126824 1.47584706,10.1190353 1.47584706,7.04397647 C1.47584706,3.96891765 3.96867059,1.47609412 7.04455294,1.47609412 C7.43655294,1.47609412 7.82031765,1.51644706 8.18925882,1.59385882" id="Stroke-3"></path>
            <path d="M9.00545882,7.04397647 C9.00545882,8.12444706 8.13004706,8.99985882 7.0504,8.99985882 C5.96992941,8.99985882 5.09451765,8.12444706 5.09451765,7.04397647 C5.09451765,5.96432941 5.96992941,5.08891765 7.0504,5.08891765 C8.13004706,5.08891765 9.00545882,5.96432941 9.00545882,7.04397647 Z" id="Stroke-5"></path>
            <path d="M6.05598824,1.56923529 C6.05598824,2.11605882 6.49822353,2.59947059 7.04422353,2.59947059" id="Stroke-7"></path>
            <path d="M8.03237647,1.56923529 C8.03237647,2.11605882 7.59014118,2.59947059 7.04414118,2.59947059" id="Stroke-9"></path>
            <path d="M6.05598824,1.56923529 C6.05598824,1.56923529 6.55010588,1.47617647 7.04422353,1.47617647 C7.59681176,1.47617647 8.03245882,1.56923529 8.03245882,1.56923529" id="Stroke-11"></path>
            <path d="M6.05598824,12.5192118 C6.05598824,11.9723882 6.49822353,11.4889765 7.04422353,11.4889765" id="Stroke-13"></path>
            <path d="M8.03237647,12.5192118 C8.03237647,11.9723882 7.59014118,11.4889765 7.04414118,11.4889765" id="Stroke-15"></path>
            <path d="M6.05598824,12.5192118 C6.05598824,12.5192118 6.55010588,12.6122706 7.04422353,12.6122706 C7.59681176,12.6122706 8.03245882,12.5192118 8.03245882,12.5192118" id="Stroke-17"></path>
            <path d="M12.5131176,6.05598824 C11.9662941,6.05598824 11.4828824,6.49822353 11.4828824,7.04422353" id="Stroke-19"></path>
            <path d="M12.5131176,8.03237647 C11.9662941,8.03237647 11.4828824,7.59014118 11.4828824,7.04414118" id="Stroke-21"></path>
            <path d="M12.5131176,6.05598824 C12.5131176,6.05598824 12.6061765,6.55010588 12.6061765,7.04422353 C12.6061765,7.59681176 12.5131176,8.03245882 12.5131176,8.03245882" id="Stroke-23"></path>
            <path d="M1.56314118,6.05598824 C2.10914118,6.05598824 2.59337647,6.49822353 2.59337647,7.04422353" id="Stroke-25"></path>
            <path d="M1.56314118,8.03237647 C2.10914118,8.03237647 2.59337647,7.59014118 2.59337647,7.04414118" id="Stroke-27"></path>
            <path d="M1.56314118,6.05598824 C1.56314118,6.05598824 1.47008235,6.55010588 1.47008235,7.04422353 C1.47008235,7.59681176 1.56314118,8.03245882 1.56314118,8.03245882" id="Stroke-29"></path>
            <path d="M2.48442353,10.2210706 C2.87065882,9.83483529 3.52536471,9.80518824 3.9116,10.1914235" id="Stroke-31"></path>
            <path d="M3.88211765,11.6188471 C4.26835294,11.2326118 4.298,10.5779059 3.91176471,10.1916706" id="Stroke-33"></path>
            <path d="M2.48442353,10.2210706 C2.48442353,10.2210706 2.76771765,10.6361294 3.11771765,10.9861294 C3.50807059,11.3764824 3.88195294,11.6186 3.88195294,11.6186" id="Stroke-35"></path>
            <path d="M11.6204118,10.2167059 C11.2341765,9.83047059 10.5794706,9.80082353 10.1932353,10.1870588" id="Stroke-37"></path>
            <path d="M10.2226353,11.6144 C9.8364,11.2281647 9.80675294,10.5734588 10.1929882,10.1872235" id="Stroke-39"></path>
            <path d="M11.6204118,10.2167059 C11.6204118,10.2167059 11.3371176,10.6317647 10.9879412,10.9817647 C10.5967647,11.3721176 10.2228824,11.6142353 10.2228824,11.6142353" id="Stroke-41"></path>
            <path d="M3.87767059,2.47396471 C4.26390588,2.8602 4.29355294,3.51490588 3.90731765,3.90114118" id="Stroke-43"></path>
            <path d="M2.47997647,3.87174118 C2.86621176,4.25797647 3.52091765,4.28762353 3.90715294,3.90138824" id="Stroke-45"></path>
            <path d="M3.87767059,2.47396471 C3.87767059,2.47396471 3.46261176,2.75725882 3.11261176,3.10725882 C2.72225882,3.49761176 2.48014118,3.87149412 2.48014118,3.87149412" id="Stroke-47"></path>
            <path d="M11.998,3.25689412 C12.0935294,3.46030588 12.1207059,3.62830588 12.1207059,3.86712941 C12.1207059,4.73595294 11.4165882,5.44089412 10.5477647,5.44089412 C9.67894118,5.44089412 8.974,4.73595294 8.974,3.86712941 C8.974,3.65136471 9.01764706,3.44465882 9.09670588,3.25689412" id="Stroke-49"></path>
            <path d="M11.998,3.25689412 L10.8392941,1.07948235 C10.7149412,0.846423529 10.3797647,0.846423529 10.2554118,1.07948235 L9.09752941,3.25689412" id="Stroke-51"></path>
        </g>
    </g>
</svg>