<?xml version="1.0" encoding="utf-8"?>
<!-- Generator: Adobe Illustrator 23.0.1, SVG Export Plug-In . SVG Version: 6.00 Build 0)  -->
<svg version="1.0" id="图层_1" xmlns="http://www.w3.org/2000/svg" xmlns:xlink="http://www.w3.org/1999/xlink" x="0px" y="0px"
	 viewBox="0 0 38 38" style="enable-background:new 0 0 38 38;" xml:space="preserve">
<style type="text/css">
	.st0{fill:#e2edf2;}
</style>
<g>
	<path class="st0" d="M23.9,7.5c-0.4-1.5-1.8-2.7-3.5-2.8c-0.2-1.9-1.8-3.5-3.7-3.5c-1.9,0-3.4,1.4-3.7,3.2c-0.7-0.6-1.5-1-2.5-1
		C8.5,3.5,6.9,5,6.7,7c-2,0.1-3.6,1.7-3.6,3.8c0,2.1,1.7,3.8,3.8,3.8h0.2c-1.3,2.2-1.9,4.7-1.9,7.3c0,8.2,6.7,14.9,14.9,14.9
		c8.2,0,14.9-6.7,14.9-14.9C34.9,15.1,30.4,9.3,23.9,7.5z M16.7,2.7c1.3,0,2.4,1.1,2.4,2.4c0,0.1,0,0.2,0,0.3c0,0,0,0.1,0,0.1
		c0,0,0,0.1,0,0.1c0,0,0,0,0,0c0,0.1,0,0.1,0.1,0.1c0,0,0,0.1,0.1,0.1c0,0,0.1,0.1,0.1,0.1c0,0,0,0.1,0.1,0.1c0,0,0.1,0,0.1,0.1
		c0,0,0.1,0,0.1,0c0,0,0,0,0,0c0,0,0.1,0,0.1,0c0,0,0,0,0.1,0c0,0,0,0,0.1,0c0.1,0,0.3,0,0.4,0c1.3,0,2.4,1.1,2.4,2.4
		c0,1.3-1.1,2.4-2.4,2.4h-2.5c0-0.1,0-0.1,0-0.2c0-2-1.6-3.7-3.6-3.8c0-0.3-0.1-0.6-0.2-0.9c0,0,0,0,0,0c0,0,0.1-0.1,0.1-0.1
		c0,0,0-0.1,0.1-0.1c0,0,0-0.1,0.1-0.1c0,0,0-0.1,0-0.1c0,0,0,0,0,0c0,0,0-0.1,0-0.1c0,0,0-0.1,0-0.1c0-0.1,0-0.2,0-0.3
		C14.3,3.8,15.4,2.7,16.7,2.7z M4.5,10.7c0-1.3,1.1-2.4,2.4-2.4c0.1,0,0.3,0,0.4,0c0,0,0.1,0,0.1,0c0,0,0.1,0,0.1,0c0,0,0,0,0,0
		c0,0,0.1,0,0.1,0c0,0,0.1,0,0.1-0.1c0,0,0.1-0.1,0.1-0.1c0,0,0.1-0.1,0.1-0.1C8,8,8,8,8,8c0,0,0-0.1,0.1-0.1c0,0,0,0,0,0
		c0,0,0-0.1,0-0.1c0,0,0-0.1,0-0.1c0-0.1,0-0.2,0-0.3c0-1.3,1.1-2.4,2.4-2.4c1.3,0,2.4,1.1,2.4,2.4c0,0.1,0,0.2,0,0.3
		c0,0,0,0.1,0,0.1c0,0,0,0.1,0,0.1c0,0,0,0,0,0c0,0.1,0,0.1,0.1,0.1c0,0,0,0.1,0.1,0.1c0,0,0.1,0.1,0.1,0.1c0,0,0.1,0.1,0.1,0.1
		c0,0,0.1,0,0.1,0.1c0,0,0.1,0,0.1,0c0,0,0,0,0,0c0,0,0.1,0,0.1,0c0,0,0,0,0.1,0c0,0,0,0,0.1,0c0.1,0,0.3,0,0.4,0
		c1.3,0,2.4,1.1,2.4,2.4c0,1.3-1.1,2.4-2.4,2.4H6.9C5.6,13.1,4.5,12,4.5,10.7z M20,35.3c-7.4,0-13.5-6-13.5-13.5
		c0-2.6,0.8-5.2,2.2-7.3h5.3c1.5,0,2.8-0.9,3.4-2.2h2.8c1.9,0,3.5-1.4,3.7-3.3c5.6,1.7,9.5,6.9,9.5,12.8
		C33.5,29.3,27.4,35.3,20,35.3z"/>
	<path class="st0" d="M17.9,16.7c1.6,0,2.9,1.3,2.9,2.9c0,0.4,0.3,0.7,0.7,0.7s0.7-0.3,0.7-0.7c0-2.4-1.9-4.3-4.3-4.3
		s-4.3,1.9-4.3,4.3v6.8c0,2.4,1.9,4.3,4.3,4.3s4.3-1.9,4.3-4.3c0-0.4-0.3-0.7-0.7-0.7s-0.7,0.3-0.7,0.7c0,1.6-1.3,2.9-2.9,2.9
		S15,28,15,26.4v-6.8C15,18,16.3,16.7,17.9,16.7z"/>
	<path class="st0" d="M25.8,14.6c-1.6,0-2.9,1.3-2.9,2.9s1.3,2.9,2.9,2.9s2.9-1.3,2.9-2.9S27.4,14.6,25.8,14.6z M25.8,19.1
		c-0.8,0-1.5-0.7-1.5-1.5S25,16,25.8,16s1.5,0.7,1.5,1.5S26.6,19.1,25.8,19.1z"/>
</g>
</svg>
