<?xml version="1.0" standalone="no"?><!DOCTYPE svg PUBLIC "-//W3C//DTD SVG 1.1//EN" "http://www.w3.org/Graphics/SVG/1.1/DTD/svg11.dtd"><svg t="1583512821361" class="icon" viewBox="0 0 1024 1024" version="1.1" xmlns="http://www.w3.org/2000/svg" p-id="2763" xmlns:xlink="http://www.w3.org/1999/xlink" width="200" height="200"><defs><style type="text/css"></style></defs><path d="M493.136842 158.989474H266.778947c-10.778947 0-18.863158 8.084211-18.863158 18.863158v164.378947c0 72.757895 59.284211 132.042105 132.042106 132.042105s132.042105-59.284211 132.042105-132.042105V177.852632c0-10.778947-8.084211-18.863158-18.863158-18.863158z m-18.863158 183.242105c0 53.894737-43.115789 94.315789-94.315789 94.315789s-94.315789-43.115789-94.31579-94.315789V196.715789h191.326316v145.51579z" fill="#101010" p-id="2764"></path><path d="M412.294737 371.873684h16.168421c10.778947 0 18.863158-8.084211 18.863158-18.863158s-8.084211-18.863158-18.863158-18.863158h-16.168421c-10.778947 0-18.863158 8.084211-18.863158 18.863158s8.084211 18.863158 18.863158 18.863158zM331.452632 371.873684h16.168421c10.778947 0 18.863158-8.084211 18.863158-18.863158s-8.084211-18.863158-18.863158-18.863158h-16.168421c-10.778947 0-18.863158 8.084211-18.863158 18.863158s8.084211 18.863158 18.863158 18.863158zM754.526316 641.347368h-18.863158v-43.115789c0-10.778947-8.084211-18.863158-18.863158-18.863158s-18.863158 8.084211-18.863158 18.863158v43.115789h-18.863158c-10.778947 0-18.863158 8.084211-18.863158 18.863158s8.084211 18.863158 18.863158 18.863158h18.863158v164.378948c0 10.778947 8.084211 18.863158 18.863158 18.863157s18.863158-8.084211 18.863158-18.863157v-164.378948h18.863158c10.778947 0 18.863158-8.084211 18.863158-18.863158s-8.084211-18.863158-18.863158-18.863158z" fill="#101010" p-id="2765"></path><path d="M811.115789 43.115789c-5.389474 0-102.4-21.557895-218.273684 2.694737-140.126316 26.947368-369.178947-2.694737-371.873684-2.694737-51.2 0-75.452632 24.252632-75.452632 75.452632v786.863158c0 51.2 24.252632 75.452632 75.452632 75.452632 5.389474 0 105.094737 5.389474 207.494737 5.389473 64.673684 0 132.042105-2.694737 175.157895-10.778947 126.652632-24.252632 202.105263 2.694737 202.105263 2.694737h21.557895c18.863158 0 32.336842-5.389474 43.115789-13.473685 18.863158-16.168421 21.557895-40.421053 21.557895-61.978947V118.568421c-10.778947-59.284211-48.505263-67.368421-80.842106-75.452632z m26.947369 897.347369c-5.389474 5.389474-16.168421 5.389474-26.947369 2.694737-13.473684-5.389474-91.621053-26.947368-220.968421-2.694737-102.4 18.863158-369.178947 2.694737-371.873684 2.694737-32.336842 0-37.726316-10.778947-37.726316-37.726316V118.568421C180.547368 86.231579 188.631579 80.842105 215.578947 80.842105c13.473684 2.694737 113.178947 13.473684 220.968421 13.473684 53.894737 0 113.178947-2.694737 158.989474-10.778947 113.178947-21.557895 207.494737-2.694737 207.494737-2.694737 35.031579 8.084211 43.115789 10.778947 43.115789 37.726316v786.863158c-2.694737 13.473684-2.694737 29.642105-8.08421 35.031579z" fill="#101010" p-id="2766"></path></svg>