<?xml version="1.0" standalone="no"?><!DOCTYPE svg PUBLIC "-//W3C//DTD SVG 1.1//EN" "http://www.w3.org/Graphics/SVG/1.1/DTD/svg11.dtd"><svg t="1583512882287" class="icon" viewBox="0 0 1024 1024" version="1.1" xmlns="http://www.w3.org/2000/svg" p-id="4511" xmlns:xlink="http://www.w3.org/1999/xlink" width="200" height="200"><defs><style type="text/css"></style></defs><path d="M595.536842 339.536842c-8.084211-13.473684-21.557895-21.557895-37.726316-21.557895-16.168421 0-29.642105 8.084211-37.726315 21.557895L350.315789 633.263158c-8.084211 13.473684-8.084211 29.642105 0 43.115789s21.557895 21.557895 37.726316 21.557895H727.578947c16.168421 0 29.642105-8.084211 37.726316-21.557895 8.084211-13.473684 8.084211-29.642105 0-43.115789l-169.768421-293.726316z m134.736842 317.978947s-2.694737 2.694737-5.389473 2.694737H388.042105c-2.694737 0-2.694737-2.694737-5.389473-2.694737v-5.389473l169.768421-293.726316c2.694737-5.389474 5.389474-5.389474 8.08421 0l169.768421 293.726316c2.694737 2.694737 2.694737 5.389474 0 5.389473z" fill="#101010" p-id="4512"></path><path d="M573.978947 582.063158l24.252632-70.063158v-2.694737-2.694737-2.694737-2.694736-2.694737s0-2.694737-2.694737-2.694737c0 0 0-2.694737-2.694737-2.694737l-2.694737-2.694737s-2.694737 0-2.694736-2.694737h-2.694737-2.694737-5.389474-2.694737l-8.08421 2.694737 13.473684-35.031579c2.694737-10.778947 0-21.557895-10.778947-24.252631-10.778947-2.694737-21.557895 0-24.252632 10.778947l-26.947368 70.063158v16.168421l2.694737 2.694737 2.694736 2.694737c2.694737 0 2.694737 2.694737 5.389474 2.694737h10.778947l10.778948-2.694737-10.778948 35.031579c-5.389474-8.084211-16.168421-13.473684-24.252631-8.084211-10.778947 5.389474-13.473684 16.168421-8.084211 24.252632l18.863158 40.421052c0 2.694737 2.694737 5.389474 5.389474 8.084211h2.694737s2.694737 0 2.694737 2.694737h5.389473c2.694737 0 5.389474 0 8.084211-2.694737l40.421052-18.863158c10.778947-5.389474 13.473684-16.168421 8.084211-24.252632s-13.473684-10.778947-24.252632-8.08421z" fill="#101010" p-id="4513"></path><path d="M878.484211 35.031579H202.105263c-26.947368 0-48.505263 21.557895-48.505263 48.505263v37.726316l-37.726316 8.08421c-2.694737 0-2.694737 0-5.389473 2.694737-8.084211 5.389474-13.473684 13.473684-13.473685 24.252632v88.926316c0 10.778947 8.084211 21.557895 18.863158 24.252631l35.031579 8.084211v463.494737l-35.031579 8.08421c-2.694737 0-2.694737 0-5.389473 2.694737-10.778947 5.389474-16.168421 13.473684-16.168422 24.252632v88.926315c0 10.778947 8.084211 21.557895 18.863158 24.252632l35.031579 8.08421v37.726316c0 26.947368 21.557895 48.505263 48.505263 48.505263h676.378948c26.947368 0 48.505263-21.557895 48.505263-48.505263V83.536842c5.389474-26.947368-16.168421-48.505263-43.115789-48.505263zM134.736842 237.136842V164.378947l18.863158-2.694736v80.842105L134.736842 237.136842z m0 622.484211v-72.757895l18.863158-5.389474v80.842105l-18.863158-2.694736z m754.526316 80.842105c0 5.389474-5.389474 10.778947-10.778947 10.778947H202.105263c-5.389474 0-10.778947-5.389474-10.778947-10.778947V83.536842c0-5.389474 5.389474-10.778947 10.778947-10.778947h676.378948c5.389474 0 10.778947 5.389474 10.778947 10.778947v856.926316z" fill="#101010" p-id="4514"></path></svg>