<?xml version="1.0" standalone="no"?><!DOCTYPE svg PUBLIC "-//W3C//DTD SVG 1.1//EN" "http://www.w3.org/Graphics/SVG/1.1/DTD/svg11.dtd"><svg t="1583512943688" class="icon" viewBox="0 0 1024 1024" version="1.1" xmlns="http://www.w3.org/2000/svg" p-id="6494" xmlns:xlink="http://www.w3.org/1999/xlink" width="200" height="200"><defs><style type="text/css"></style></defs><path d="M829.978947 503.915789l-40.421052-29.642105c18.863158-40.421053 32.336842-86.231579 32.336842-134.736842 0-32.336842-5.389474-64.673684-16.168421-97.010526h18.863158c10.778947 0 18.863158-8.084211 18.863158-18.863158v-80.842105c0-10.778947-8.084211-18.863158-18.863158-18.863158h-88.926316c-56.589474-56.589474-134.736842-94.315789-220.968421-94.31579-86.231579 0-164.378947 35.031579-220.968421 94.31579H207.494737c-10.778947 2.694737-18.863158 10.778947-18.863158 21.557894v80.842106c0 10.778947 8.084211 18.863158 18.863158 18.863158h13.473684c-10.778947 29.642105-16.168421 61.978947-16.168421 97.010526 0 48.505263 10.778947 94.315789 32.336842 134.736842l-43.115789 32.336842c-13.473684 10.778947-21.557895 29.642105-21.557895 45.810526 0 35.031579 29.642105 64.673684 64.673684 64.673685h142.821053c8.084211 2.694737 13.473684 5.389474 21.557894 8.08421v51.2c-18.863158 8.084211-18.863158 16.168421-18.863157 21.557895v250.610526c0 10.778947 0 35.031579 129.347368 35.031579s129.347368-24.252632 129.347368-35.031579V700.631579c0-5.389474 0-16.168421-18.863157-24.252632v-48.505263c8.084211-2.694737 18.863158-8.084211 26.947368-10.778947h142.821053c35.031579 0 64.673684-29.642105 64.673684-64.673684-5.389474-16.168421-13.473684-32.336842-26.947369-48.505264z m-24.252631-339.536842v43.11579h-16.168421c-8.084211-13.473684-16.168421-29.642105-24.252632-43.11579h40.421053zM512 70.063158c148.210526 0 269.473684 121.263158 269.473684 269.473684s-121.263158 269.473684-269.473684 269.473684-269.473684-121.263158-269.473684-269.473684 121.263158-269.473684 269.473684-269.473684zM226.357895 207.494737V164.378947h35.031579c-8.084211 13.473684-16.168421 26.947368-24.252632 43.11579h-10.778947z m13.473684 371.873684c-13.473684 0-26.947368-10.778947-26.947368-26.947368 0-8.084211 2.694737-13.473684 5.389473-18.863158l37.726316-26.947369c18.863158 26.947368 40.421053 51.2 64.673684 70.063158h-80.842105z m361.094737 269.473684c-8.084211 2.694737-32.336842 8.084211-91.621053 8.084211s-80.842105-5.389474-91.621052-8.084211v-59.28421c18.863158 5.389474 48.505263 8.084211 91.621052 8.08421 43.115789 0 72.757895-2.694737 91.621053-8.08421v59.28421z m0-140.126316v37.726316c-10.778947 2.694737-43.115789 8.084211-91.621053 8.084211-48.505263 0-78.147368-5.389474-91.621052-8.084211v-37.726316c13.473684-2.694737 43.115789-8.084211 94.315789-8.08421 48.505263 0 78.147368 5.389474 88.926316 8.08421z m-180.547369 231.747369v-53.894737c18.863158 5.389474 48.505263 8.084211 91.621053 8.084211 43.115789 0 70.063158-2.694737 88.926316-8.084211v53.894737c-10.778947 2.694737-43.115789 8.084211-91.621053 8.08421-48.505263 0-78.147368-2.694737-88.926316-8.08421z m161.684211-272.168421c-18.863158-2.694737-40.421053-2.694737-70.063158-2.694737s-53.894737 2.694737-70.063158 2.694737v-29.642105c24.252632 5.389474 48.505263 8.084211 72.757895 8.08421 24.252632 0 45.810526-2.694737 67.368421-8.08421v29.642105z m207.494737-88.926316h-83.536842c24.252632-18.863158 45.810526-43.115789 64.673684-70.063158l35.031579 26.947369c5.389474 5.389474 8.084211 10.778947 8.08421 18.863157 0 13.473684-10.778947 24.252632-24.252631 24.252632z" fill="#101010" p-id="6495"></path><path d="M363.789474 223.663158c-26.947368 32.336842-40.421053 72.757895-40.421053 115.873684 0 43.115789 13.473684 80.842105 37.726316 113.178947v2.694737c35.031579 43.115789 86.231579 72.757895 148.210526 72.757895 59.284211 0 113.178947-26.947368 148.210526-72.757895v-2.694737c24.252632-32.336842 37.726316-70.063158 37.726316-113.178947s-16.168421-83.536842-40.421052-115.873684v-2.694737c-35.031579-43.115789-86.231579-70.063158-145.51579-70.063158-56.589474 2.694737-110.484211 29.642105-145.515789 72.757895z m269.473684 32.336842c16.168421 24.252632 26.947368 53.894737 26.947368 83.536842s-8.084211 59.284211-24.252631 83.536842h-247.91579c-16.168421-24.252632-24.252632-51.2-24.252631-83.536842 0-32.336842 10.778947-59.284211 26.947368-83.536842h242.526316z m-210.189474 204.8h175.157895c-24.252632 18.863158-53.894737 29.642105-88.926316 29.642105s-61.978947-10.778947-86.231579-29.642105z m175.157895-242.526316h-172.463158c24.252632-16.168421 53.894737-26.947368 86.231579-26.947368s61.978947 10.778947 86.231579 26.947368zM291.031579 266.778947c2.694737 0 5.389474 2.694737 8.08421 2.694737 8.084211 0 13.473684-5.389474 16.168422-10.778947 24.252632-51.2 67.368421-91.621053 118.568421-110.484211 10.778947-2.694737 13.473684-13.473684 10.778947-24.252631s-13.473684-16.168421-21.557895-10.778948c-61.978947 21.557895-113.178947 70.063158-140.126316 129.347369-5.389474 8.084211 0 21.557895 8.084211 24.252631zM587.452632 148.210526c51.2 18.863158 94.315789 59.284211 118.568421 110.484211 2.694737 8.084211 10.778947 10.778947 16.168421 10.778947 2.694737 0 5.389474 0 8.08421-2.694737 10.778947-5.389474 13.473684-16.168421 8.084211-24.252631-26.947368-59.284211-78.147368-107.789474-140.126316-129.347369-10.778947-2.694737-21.557895 0-24.252632 10.778948-2.694737 8.084211 2.694737 18.863158 13.473685 24.252631zM436.547368 533.557895c-51.2-18.863158-94.315789-59.284211-118.568421-110.484211-5.389474-10.778947-16.168421-13.473684-24.252631-8.08421-10.778947 5.389474-13.473684 16.168421-8.084211 24.252631 26.947368 59.284211 78.147368 107.789474 140.126316 129.347369h5.389474c8.084211 0 13.473684-5.389474 18.863158-13.473685 0-5.389474-5.389474-16.168421-13.473685-21.557894zM730.273684 414.989474c-10.778947-5.389474-21.557895 0-24.252631 8.08421-24.252632 51.2-67.368421 91.621053-118.568421 110.484211-10.778947 2.694737-13.473684 13.473684-10.778948 24.252631 2.694737 8.084211 10.778947 13.473684 18.863158 13.473685h5.389474c61.978947-24.252632 110.484211-70.063158 140.126316-129.347369 2.694737-10.778947 0-21.557895-10.778948-26.947368z" fill="#101010" p-id="6496"></path><path d="M409.6 331.452632H619.789474c10.778947 0 18.863158-8.084211 18.863158-18.863158s-8.084211-18.863158-18.863158-18.863158h-212.884211c-10.778947 0-18.863158 8.084211-18.863158 18.863158s10.778947 18.863158 21.557895 18.863158zM522.778947 347.621053h-113.178947c-10.778947 0-18.863158 8.084211-18.863158 18.863158s8.084211 18.863158 18.863158 18.863157h113.178947c10.778947 0 18.863158-8.084211 18.863158-18.863157s-10.778947-18.863158-18.863158-18.863158z" fill="#101010" p-id="6497"></path></svg>