<?xml version="1.0" standalone="no"?><!DOCTYPE svg PUBLIC "-//W3C//DTD SVG 1.1//EN" "http://www.w3.org/Graphics/SVG/1.1/DTD/svg11.dtd"><svg t="1583512768788" class="icon" viewBox="0 0 1024 1024" version="1.1" xmlns="http://www.w3.org/2000/svg" p-id="1266" xmlns:xlink="http://www.w3.org/1999/xlink" width="200" height="200"><defs><style type="text/css"></style></defs><path d="M334.147368 587.452632c67.368421 0 121.263158-53.894737 121.263158-121.263158 0-16.168421-2.694737-29.642105-10.778947-48.505263l-75.452632-140.126316c-8.084211-13.473684-21.557895-21.557895-35.031579-21.557895s-29.642105 8.084211-35.031579 21.557895l-75.452631 140.126316c-5.389474 13.473684-8.084211 29.642105-8.084211 45.810526-2.694737 70.063158 51.2 123.957895 118.568421 123.957895zM331.452632 296.421053h5.389473l75.452632 140.126315c5.389474 10.778947 5.389474 18.863158 5.389474 32.336843 0 45.810526-37.726316 83.536842-83.536843 83.536842S250.610526 512 250.610526 466.189474c0-10.778947 2.694737-21.557895 5.389474-32.336842l75.452632-137.431579z" fill="#101010" p-id="1267"></path><path d="M940.463158 86.231579H83.536842c-26.947368 0-48.505263 21.557895-48.505263 48.505263v754.526316c0 26.947368 21.557895 48.505263 48.505263 48.505263h854.231579c26.947368 0 48.505263-21.557895 48.505263-48.505263V134.736842c2.694737-26.947368-18.863158-48.505263-45.810526-48.505263zM83.536842 123.957895h854.231579c5.389474 0 10.778947 5.389474 10.778947 10.778947v576.673684H72.757895V134.736842c0-5.389474 5.389474-10.778947 10.778947-10.778947z m856.926316 776.08421H83.536842c-5.389474 0-10.778947-5.389474-10.778947-10.778947v-137.431579h878.48421V889.263158c0 5.389474-5.389474 10.778947-10.778947 10.778947z" fill="#101010" p-id="1268"></path><path d="M237.136842 778.778947H177.852632c-26.947368 0-48.505263 21.557895-48.505264 48.505264s21.557895 48.505263 48.505264 48.505263h61.978947c26.947368 0 48.505263-21.557895 48.505263-48.505263s-24.252632-48.505263-51.2-48.505264z m0 61.978948H177.852632c-5.389474 0-10.778947-5.389474-10.778948-10.778948s5.389474-10.778947 10.778948-10.778947h61.978947c5.389474 0 10.778947 5.389474 10.778947 10.778947s-5.389474 10.778947-13.473684 10.778948zM441.936842 778.778947h-61.978947c-26.947368 0-48.505263 21.557895-48.505263 48.505264s21.557895 48.505263 48.505263 48.505263h61.978947c26.947368 0 48.505263-21.557895 48.505263-48.505263s-21.557895-48.505263-48.505263-48.505264z m0 61.978948h-61.978947c-5.389474 0-10.778947-5.389474-10.778948-10.778948s5.389474-10.778947 10.778948-10.778947h61.978947c5.389474 0 10.778947 5.389474 10.778947 10.778947s-5.389474 10.778947-10.778947 10.778948zM644.042105 778.778947h-61.978947c-26.947368 0-48.505263 21.557895-48.505263 48.505264s21.557895 48.505263 48.505263 48.505263h61.978947c26.947368 0 48.505263-21.557895 48.505263-48.505263s-21.557895-48.505263-48.505263-48.505264z m0 61.978948h-61.978947c-5.389474 0-10.778947-5.389474-10.778947-10.778948s5.389474-10.778947 10.778947-10.778947h61.978947c5.389474 0 10.778947 5.389474 10.778948 10.778947s-5.389474 10.778947-10.778948 10.778948zM846.147368 778.778947h-61.978947c-26.947368 0-48.505263 21.557895-48.505263 48.505264s21.557895 48.505263 48.505263 48.505263h61.978947c26.947368 0 48.505263-21.557895 48.505264-48.505263s-21.557895-48.505263-48.505264-48.505264z m0 61.978948h-61.978947c-5.389474 0-10.778947-5.389474-10.778947-10.778948s5.389474-10.778947 10.778947-10.778947h61.978947c5.389474 0 10.778947 5.389474 10.778948 10.778947s-2.694737 10.778947-10.778948 10.778948zM552.421053 379.957895h242.526315c10.778947 0 18.863158-8.084211 18.863158-18.863158s-8.084211-18.863158-18.863158-18.863158h-242.526315c-10.778947 0-18.863158 8.084211-18.863158 18.863158s8.084211 18.863158 18.863158 18.863158zM552.421053 501.221053h242.526315c10.778947 0 18.863158-8.084211 18.863158-18.863158s-8.084211-18.863158-18.863158-18.863158h-242.526315c-10.778947 0-18.863158 8.084211-18.863158 18.863158s8.084211 18.863158 18.863158 18.863158z" fill="#101010" p-id="1269"></path><path d="M158.989474 679.073684h706.021052c26.947368 0 48.505263-21.557895 48.505263-48.505263V212.884211c0-26.947368-21.557895-48.505263-48.505263-48.505264H158.989474C129.347368 161.684211 107.789474 185.936842 107.789474 212.884211v417.68421c0 26.947368 21.557895 48.505263 51.2 48.505263zM145.515789 212.884211c0-5.389474 5.389474-10.778947 10.778948-10.778948H862.315789c5.389474 0 10.778947 5.389474 10.778948 10.778948v417.68421c0 5.389474-5.389474 10.778947-10.778948 10.778947H158.989474c-5.389474 0-10.778947-5.389474-10.778948-10.778947V212.884211z" fill="#101010" p-id="1270"></path></svg>