<?xml version="1.0" standalone="no"?><!DOCTYPE svg PUBLIC "-//W3C//DTD SVG 1.1//EN" "http://www.w3.org/Graphics/SVG/1.1/DTD/svg11.dtd"><svg t="1583512782659" class="icon" viewBox="0 0 1024 1024" version="1.1" xmlns="http://www.w3.org/2000/svg" p-id="1641" xmlns:xlink="http://www.w3.org/1999/xlink" width="200" height="200"><defs><style type="text/css"></style></defs><path d="M816.505263 35.031579H207.494737c-32.336842 0-61.978947 26.947368-61.978948 59.28421v762.610527c0 32.336842 26.947368 59.284211 61.978948 59.28421h134.736842v53.894737c0 10.778947 8.084211 18.863158 18.863158 18.863158s18.863158-8.084211 18.863158-18.863158v-56.589474h113.178947V970.105263c0 10.778947 8.084211 18.863158 18.863158 18.863158s18.863158-8.084211 18.863158-18.863158v-56.589474h113.178947V970.105263c0 10.778947 8.084211 18.863158 18.863158 18.863158s18.863158-8.084211 18.863158-18.863158v-56.589474h134.736842c32.336842 0 61.978947-26.947368 61.978948-59.28421V94.315789c-2.694737-32.336842-29.642105-59.284211-61.978948-59.28421z m21.557895 821.894737c0 10.778947-10.778947 21.557895-24.252632 21.557895H207.494737c-13.473684 0-24.252632-8.084211-24.252632-21.557895V94.315789c0-10.778947 10.778947-21.557895 24.252632-21.557894h606.315789c13.473684 0 24.252632 8.084211 24.252632 21.557894v762.610527z" fill="#101010" p-id="1642"></path><path d="M732.968421 123.957895H291.031579c-32.336842 0-61.978947 26.947368-61.978947 59.28421v584.757895c0 32.336842 26.947368 59.284211 61.978947 59.284211h439.242105c32.336842 0 61.978947-26.947368 61.978948-59.284211V180.547368c0-32.336842-26.947368-56.589474-59.284211-56.589473z m21.557895 641.347368c0 10.778947-10.778947 21.557895-24.252632 21.557895H291.031579c-13.473684 0-24.252632-8.084211-24.252632-21.557895V180.547368c2.694737-10.778947 13.473684-18.863158 24.252632-18.863157h439.242105c13.473684 0 24.252632 8.084211 24.252632 18.863157v584.757895z" fill="#101010" p-id="1643"></path><path d="M576.673684 600.926316v-2.694737s0-2.694737-2.694737-2.694737c0 0 0-2.694737-2.694736-2.694737l-2.694737-2.694737-2.694737-2.694736h-2.694737-59.284211l40.421053-64.673685c5.389474-8.084211 2.694737-21.557895-5.389474-26.947368-8.084211-5.389474-21.557895-2.694737-26.947368 5.389474L450.021053 592.842105v16.168421s0 2.694737 2.694736 2.694737c0 0 0 2.694737 2.694737 2.694737l2.694737 2.694737 2.694737 2.694737c2.694737 2.694737 5.389474 2.694737 8.084211 2.694737h59.28421l-37.726316 67.368421c-5.389474 8.084211-2.694737 21.557895 8.084211 26.947368 2.694737 2.694737 5.389474 2.694737 8.08421 2.694737 5.389474 0 13.473684-2.694737 16.168421-10.778948l53.894737-94.315789v-2.694737-2.694737-8.08421c0 2.694737 0 0 0 0zM662.905263 215.578947H361.094737c-24.252632 0-40.421053 18.863158-40.421053 40.421053v99.705263c0 24.252632 18.863158 40.421053 40.421053 40.421053h299.115789c24.252632 0 40.421053-18.863158 40.421053-40.421053V258.694737c2.694737-24.252632-16.168421-43.115789-37.726316-43.11579z m2.694737 142.821053c0 2.694737-2.694737 2.694737-2.694737 2.694737H361.094737c-2.694737 0-2.694737-2.694737-2.694737-2.694737V258.694737c0-2.694737 2.694737-2.694737 2.694737-2.694737h299.115789c2.694737 0 2.694737 2.694737 2.694737 2.694737v99.705263z" fill="#101010" p-id="1644"></path></svg>