<?xml version="1.0" standalone="no"?><!DOCTYPE svg PUBLIC "-//W3C//DTD SVG 1.1//EN" "http://www.w3.org/Graphics/SVG/1.1/DTD/svg11.dtd"><svg t="1583512878294" class="icon" viewBox="0 0 1024 1024" version="1.1" xmlns="http://www.w3.org/2000/svg" p-id="4387" xmlns:xlink="http://www.w3.org/1999/xlink" width="200" height="200"><defs><style type="text/css"></style></defs><path d="M781.473684 291.031579H242.526316c-21.557895 0-40.421053 18.863158-40.421053 40.421053v134.736842c0 21.557895 18.863158 40.421053 40.421053 40.421052h538.947368c21.557895 0 40.421053-18.863158 40.421053-40.421052v-134.736842c0-24.252632-18.863158-40.421053-40.421053-40.421053z m-307.2 175.157895l40.421053-137.431579h126.652631l-40.421052 137.431579h-126.652632z m-234.442105-2.694737l2.694737-134.736842h234.442105l-40.421053 137.431579-196.715789-2.694737z m544.336842 0c0 2.694737-2.694737 2.694737 0 0h-142.821053l40.421053-137.431579h102.4v137.431579zM794.947368 611.705263h-212.88421c-10.778947 0-18.863158 8.084211-18.863158 18.863158s8.084211 18.863158 18.863158 18.863158h212.88421c10.778947 0 18.863158-8.084211 18.863158-18.863158s-8.084211-18.863158-18.863158-18.863158zM285.642105 611.705263H220.968421c-10.778947 0-18.863158 8.084211-18.863158 18.863158s8.084211 18.863158 18.863158 18.863158h64.673684c10.778947 0 18.863158-8.084211 18.863158-18.863158s-8.084211-18.863158-18.863158-18.863158zM433.852632 611.705263h-67.368421c-10.778947 0-18.863158 8.084211-18.863158 18.863158s8.084211 18.863158 18.863158 18.863158h67.368421c10.778947 0 18.863158-8.084211 18.863157-18.863158s-8.084211-18.863158-18.863157-18.863158z" fill="#101010" p-id="4388"></path><path d="M889.263158 177.852632h-53.894737L794.947368 107.789474c-29.642105-48.505263-75.452632-70.063158-137.431579-72.757895H371.873684c-64.673684 0-113.178947 24.252632-142.821052 72.757895L191.326316 177.852632H134.736842c-26.947368 0-48.505263 21.557895-48.505263 48.505263v485.052631c0 26.947368 21.557895 48.505263 48.505263 48.505263h78.147369v123.957895c2.694737 2.694737 2.694737 2.694737 2.694736 5.389474l61.978948 61.978947c32.336842 32.336842 51.2 37.726316 94.315789 37.726316H652.126316c43.115789 0 61.978947-5.389474 94.315789-37.726316L808.421053 889.263158c0-2.694737 2.694737-2.694737 2.694736-5.389474v-5.389473V759.915789H889.263158c26.947368 0 48.505263-21.557895 48.505263-48.505263v-485.052631c0-26.947368-21.557895-48.505263-48.505263-48.505263zM261.389474 126.652632c24.252632-37.726316 59.284211-53.894737 110.48421-53.894737h277.557895c53.894737 0 86.231579 16.168421 110.48421 53.894737l26.947369 51.2H234.442105l26.947369-51.2z m512 741.052631l-56.589474 56.589474c-24.252632 24.252632-32.336842 24.252632-67.368421 24.252631H369.178947c-35.031579 0-43.115789-2.694737-67.368421-24.252631l-56.589473-56.589474v-107.789474h64.673684V835.368421c0 10.778947 8.084211 18.863158 18.863158 18.863158s18.863158-8.084211 18.863158-18.863158v-75.452632H431.157895V835.368421c0 10.778947 8.084211 18.863158 18.863158 18.863158s18.863158-8.084211 18.863158-18.863158v-75.452632h83.536842V835.368421c0 10.778947 8.084211 18.863158 18.863158 18.863158s18.863158-8.084211 18.863157-18.863158v-75.452632H673.684211V835.368421c0 10.778947 8.084211 18.863158 18.863157 18.863158s18.863158-8.084211 18.863158-18.863158v-75.452632h59.284211v107.789474z m126.652631-156.294737c0 5.389474-5.389474 10.778947-10.778947 10.778948H134.736842c-5.389474 0-10.778947-5.389474-10.778947-10.778948v-485.052631c0-5.389474 5.389474-10.778947 10.778947-10.778948h754.526316c5.389474 0 10.778947 5.389474 10.778947 10.778948v485.052631z" fill="#101010" p-id="4389"></path></svg>