<?xml version="1.0" standalone="no"?><!DOCTYPE svg PUBLIC "-//W3C//DTD SVG 1.1//EN" "http://www.w3.org/Graphics/SVG/1.1/DTD/svg11.dtd"><svg t="1583512921329" class="icon" viewBox="0 0 1024 1024" version="1.1" xmlns="http://www.w3.org/2000/svg" p-id="5874" xmlns:xlink="http://www.w3.org/1999/xlink" width="200" height="200"><defs><style type="text/css"></style></defs><path d="M940.463158 78.147368H83.536842c-26.947368 0-48.505263 21.557895-48.505263 48.505264v770.694736c0 26.947368 21.557895 48.505263 48.505263 48.505264h854.231579c26.947368 0 48.505263-21.557895 48.505263-48.505264V126.652632c2.694737-26.947368-18.863158-48.505263-45.810526-48.505264z m-83.536842 600.926316h-97.010527V344.926316h191.326316v334.147368h-94.315789z m-689.852632 0H72.757895V344.926316h191.326316v334.147368H167.073684z m134.736842-334.147368h191.326316v334.147368h-191.326316V344.926316z m323.368421-86.231579c-10.778947 0-18.863158 8.084211-18.863158 18.863158v29.642105h-75.452631V115.873684h191.326316v191.326316h-78.147369v-29.642105c0-8.084211-8.084211-18.863158-18.863158-18.863158z m-132.042105 48.505263h-78.147368v-29.642105c0-10.778947-8.084211-18.863158-18.863158-18.863158s-18.863158 10.778947-18.863158 18.863158v29.642105h-75.452632V115.873684h191.326316v191.326316z m-113.178947 409.6v29.642105c0 10.778947 8.084211 18.863158 18.863158 18.863158s18.863158-8.084211 18.863158-18.863158v-29.642105h75.452631v191.326316h-191.326316v-191.326316h78.147369z m150.905263 0h78.147368v29.642105c0 10.778947 8.084211 18.863158 18.863158 18.863158s18.863158-10.778947 18.863158-18.863158v-29.642105h75.452632v191.326316h-191.326316v-191.326316z m97.010526-37.726316h-97.010526V344.926316h191.326316v334.147368h-94.31579z m323.368421-552.421052v180.547368h-75.452631v-29.642105c0-10.778947-8.084211-18.863158-18.863158-18.863158s-18.863158 8.084211-18.863158 18.863158v29.642105h-78.147369V115.873684h180.547369c5.389474 0 10.778947 5.389474 10.778947 10.778948z m-878.48421 0c0-5.389474 5.389474-10.778947 10.778947-10.778948h180.547369v191.326316H185.936842v-29.642105c0-10.778947-8.084211-18.863158-18.863158-18.863158s-18.863158 10.778947-18.863158 18.863158v29.642105H72.757895V126.652632z m0 770.694736v-180.547368h75.452631v29.642105c0 10.778947 8.084211 18.863158 18.863158 18.863158s18.863158-8.084211 18.863158-18.863158v-29.642105h78.147369v191.326316H83.536842c-5.389474 0-10.778947-5.389474-10.778947-10.778948z m878.48421 0c0 5.389474-5.389474 10.778947-10.778947 10.778948h-180.547369v-191.326316h78.147369v29.642105c0 10.778947 8.084211 18.863158 18.863158 18.863158s18.863158-8.084211 18.863158-18.863158v-29.642105h75.452631v180.547368z" fill="#101010" p-id="5875"></path><path d="M167.073684 239.831579c29.642105 0 53.894737-24.252632 53.894737-53.894737s-24.252632-53.894737-53.894737-53.894737-53.894737 24.252632-53.894737 53.894737 24.252632 53.894737 53.894737 53.894737z m0-70.063158c8.084211 0 16.168421 8.084211 16.168421 16.168421s-5.389474 16.168421-16.168421 16.168421-16.168421-5.389474-16.168421-16.168421 8.084211-16.168421 16.168421-16.168421zM398.821053 239.831579c29.642105 0 53.894737-24.252632 53.894736-53.894737s-24.252632-53.894737-53.894736-53.894737-53.894737 24.252632-53.894737 53.894737 21.557895 53.894737 53.894737 53.894737z m0-70.063158c8.084211 0 16.168421 8.084211 16.168421 16.168421s-8.084211 16.168421-16.168421 16.168421-16.168421-8.084211-16.168421-16.168421 5.389474-16.168421 16.168421-16.168421zM681.768421 185.936842c0-29.642105-24.252632-53.894737-53.894737-53.894737s-53.894737 24.252632-53.894737 53.894737 24.252632 53.894737 53.894737 53.894737 53.894737-24.252632 53.894737-53.894737z m-56.589474 16.168421c-8.084211 0-16.168421-8.084211-16.168421-16.168421s8.084211-16.168421 16.168421-16.168421 16.168421 8.084211 16.168421 16.168421-5.389474 16.168421-16.168421 16.168421zM859.621053 239.831579c29.642105 0 53.894737-24.252632 53.894736-53.894737s-24.252632-53.894737-53.894736-53.894737-53.894737 24.252632-53.894737 53.894737 24.252632 53.894737 53.894737 53.894737z m0-70.063158c8.084211 0 16.168421 8.084211 16.168421 16.168421s-8.084211 16.168421-16.168421 16.168421-16.168421-8.084211-16.168421-16.168421 5.389474-16.168421 16.168421-16.168421zM856.926316 784.168421c-29.642105 0-53.894737 24.252632-53.894737 53.894737s24.252632 53.894737 53.894737 53.894737 53.894737-24.252632 53.894737-53.894737-24.252632-53.894737-53.894737-53.894737z m0 70.063158c-8.084211 0-16.168421-8.084211-16.168421-16.168421s8.084211-16.168421 16.168421-16.168421 16.168421 8.084211 16.168421 16.168421-8.084211 16.168421-16.168421 16.168421zM625.178947 784.168421c-29.642105 0-53.894737 24.252632-53.894736 53.894737s24.252632 53.894737 53.894736 53.894737 53.894737-24.252632 53.894737-53.894737-21.557895-53.894737-53.894737-53.894737z m0 70.063158c-8.084211 0-16.168421-8.084211-16.168421-16.168421s8.084211-16.168421 16.168421-16.168421 16.168421 8.084211 16.168421 16.168421-5.389474 16.168421-16.168421 16.168421zM398.821053 891.957895c29.642105 0 53.894737-24.252632 53.894736-53.894737s-24.252632-53.894737-53.894736-53.894737-53.894737 24.252632-53.894737 53.894737 21.557895 53.894737 53.894737 53.894737z m0-70.063158c8.084211 0 16.168421 8.084211 16.168421 16.168421s-8.084211 16.168421-16.168421 16.168421-16.168421-8.084211-16.168421-16.168421 5.389474-16.168421 16.168421-16.168421zM164.378947 784.168421c-29.642105 0-53.894737 24.252632-53.894736 53.894737s24.252632 53.894737 53.894736 53.894737 53.894737-24.252632 53.894737-53.894737-24.252632-53.894737-53.894737-53.894737z m0 70.063158c-8.084211 0-16.168421-8.084211-16.168421-16.168421s8.084211-16.168421 16.168421-16.168421 16.168421 8.084211 16.168421 16.168421-5.389474 16.168421-16.168421 16.168421zM223.663158 390.736842H113.178947c-10.778947 0-18.863158 8.084211-18.863158 18.863158v204.8c0 10.778947 8.084211 18.863158 18.863158 18.863158h110.484211c10.778947 0 18.863158-8.084211 18.863158-18.863158v-204.8c0-10.778947-8.084211-18.863158-18.863158-18.863158z m-18.863158 204.8H132.042105v-167.073684h72.757895v167.073684zM450.021053 633.263158c10.778947 0 18.863158-8.084211 18.863158-18.863158v-204.8c0-10.778947-8.084211-18.863158-18.863158-18.863158h-110.484211c-10.778947 0-18.863158 8.084211-18.863158 18.863158v204.8c0 10.778947 8.084211 18.863158 18.863158 18.863158h110.484211z m-91.621053-204.8H431.157895v167.073684h-72.757895v-167.073684zM679.073684 390.736842h-110.48421c-10.778947 0-18.863158 8.084211-18.863158 18.863158v204.8c0 10.778947 8.084211 18.863158 18.863158 18.863158h110.48421c10.778947 0 18.863158-8.084211 18.863158-18.863158v-204.8c0-10.778947-8.084211-18.863158-18.863158-18.863158z m-18.863158 204.8h-72.757894v-167.073684h72.757894v167.073684zM913.515789 390.736842h-110.48421c-10.778947 0-18.863158 8.084211-18.863158 18.863158v204.8c0 10.778947 8.084211 18.863158 18.863158 18.863158h110.48421c10.778947 0 18.863158-8.084211 18.863158-18.863158v-204.8c0-10.778947-8.084211-18.863158-18.863158-18.863158z m-18.863157 204.8h-72.757895v-167.073684h72.757895v167.073684z" fill="#101010" p-id="5876"></path></svg>