<?xml version="1.0" standalone="no"?><!DOCTYPE svg PUBLIC "-//W3C//DTD SVG 1.1//EN" "http://www.w3.org/Graphics/SVG/1.1/DTD/svg11.dtd"><svg t="1583512853057" class="icon" viewBox="0 0 1024 1024" version="1.1" xmlns="http://www.w3.org/2000/svg" p-id="3513" xmlns:xlink="http://www.w3.org/1999/xlink" width="200" height="200"><defs><style type="text/css"></style></defs><path d="M983.578947 945.852632l-21.557894-21.557895V495.831579c0-247.915789-202.105263-450.021053-450.021053-450.021053S61.978947 247.915789 61.978947 495.831579v428.463158l-21.557894 21.557895c-8.084211 8.084211-8.084211 18.863158 0 26.947368 2.694737 2.694737 8.084211 5.389474 13.473684 5.389474s10.778947-2.694737 13.473684-5.389474l21.557895-21.557895h848.842105l21.557895 21.557895c2.694737 2.694737 8.084211 5.389474 13.473684 5.389474s8.084211-2.694737 13.473684-5.389474c5.389474-8.084211 5.389474-18.863158-2.694737-26.947368zM99.705263 495.831579C99.705263 269.473684 282.947368 83.536842 512 83.536842S924.294737 269.473684 924.294737 495.831579v388.042105L862.315789 819.2 776.084211 727.578947c10.778947-13.473684 16.168421-32.336842 16.168421-51.2v-180.547368C792.252632 342.231579 665.6 215.578947 512 215.578947S231.747368 342.231579 231.747368 495.831579v180.547368c0 18.863158 5.389474 35.031579 16.168421 51.2l-148.210526 156.294737V495.831579zM754.526316 679.073684c0 29.642105-24.252632 53.894737-53.894737 53.894737H320.673684c-29.642105 0-53.894737-24.252632-53.894737-53.894737v-180.547368c0-134.736842 107.789474-242.526316 242.526316-242.526316s242.526316 107.789474 242.526316 242.526316v180.547368zM274.863158 754.526316c13.473684 8.084211 29.642105 13.473684 48.505263 13.473684h379.957895c18.863158 0 35.031579-5.389474 48.505263-13.473684l56.589474 59.28421H218.273684l56.589474-59.28421z m-150.905263 158.989473l59.28421-61.978947h660.210527l59.28421 61.978947H123.957895z" fill="#101010" p-id="3514"></path><path d="M444.631579 568.589474h-43.11579c-10.778947 0-18.863158 8.084211-18.863157 18.863158s8.084211 18.863158 18.863157 18.863157h43.11579c10.778947 0 18.863158-8.084211 18.863158-18.863157s-8.084211-18.863158-18.863158-18.863158z" fill="#101010" p-id="3515"></path><path d="M662.905263 463.494737h-2.694737s-2.694737 0-2.694737 2.694737h-2.694736l-45.810527 37.726315h-183.242105l-53.894737-40.421052h-2.694737s-2.694737 0-2.694736-2.694737h-2.694737H323.368421c-10.778947 0-18.863158 8.084211-18.863158 18.863158s8.084211 18.863158 18.863158 18.863158h32.336842l2.694737 2.694737-5.389474 5.389473c-2.694737 2.694737-21.557895 26.947368-24.252631 48.505263V606.315789c0 26.947368 18.863158 48.505263 43.115789 53.894737 8.084211 24.252632 29.642105 40.421053 56.589474 40.421053s48.505263-16.168421 56.589474-40.421053h61.978947c8.084211 24.252632 29.642105 40.421053 56.589474 40.421053s48.505263-16.168421 56.589473-40.421053c24.252632-5.389474 43.115789-26.947368 43.11579-53.894737v-48.505263c0-21.557895-21.557895-48.505263-24.252632-51.2l-5.389473-5.389473h29.642105c10.778947 0 18.863158-8.084211 18.863158-18.863158s-8.084211-18.863158-18.863158-18.863158h-40.421053c2.694737 0 0 0 0 0z m-16.168421 164.378947h-261.389474c-10.778947 0-18.863158-8.084211-18.863157-18.863158v-45.810526-2.694737c0-2.694737 5.389474-16.168421 16.168421-26.947368l5.389473-5.389474 18.863158 13.473684H617.094737c2.694737 0 5.389474 0 8.08421-2.694737h2.694737s2.694737 0 2.694737-2.694736l16.168421-13.473685 5.389474 8.084211c8.084211 10.778947 16.168421 24.252632 16.168421 26.947368v48.505263c-2.694737 13.473684-10.778947 21.557895-21.557895 21.557895z m-218.273684 40.421053c-2.694737 0-5.389474 0-8.084211-2.694737h18.863158c-2.694737 0-5.389474 2.694737-10.778947 2.694737z m164.378947-2.694737h18.863158c-2.694737 2.694737-5.389474 2.694737-8.08421 2.694737s-8.084211-2.694737-10.778948-2.694737z" fill="#101010" p-id="3516"></path><path d="M630.568421 568.589474h-43.115789c-10.778947 0-18.863158 8.084211-18.863158 18.863158s8.084211 18.863158 18.863158 18.863157h43.115789c10.778947 0 18.863158-8.084211 18.863158-18.863157s-8.084211-18.863158-18.863158-18.863158zM409.6 482.357895c10.778947 0 18.863158-8.084211 18.863158-18.863158v-29.642105c0-5.389474 5.389474-10.778947 10.778947-10.778948h145.51579c5.389474 0 10.778947 5.389474 10.778947 10.778948v29.642105c0 10.778947 8.084211 18.863158 18.863158 18.863158s18.863158-8.084211 18.863158-18.863158v-29.642105c0-26.947368-21.557895-48.505263-48.505263-48.505264h-145.51579c-26.947368 0-48.505263 21.557895-48.505263 48.505264v29.642105c0 10.778947 8.084211 18.863158 18.863158 18.863158z" fill="#101010" p-id="3517"></path></svg>