<?xml version="1.0" standalone="no"?><!DOCTYPE svg PUBLIC "-//W3C//DTD SVG 1.1//EN" "http://www.w3.org/Graphics/SVG/1.1/DTD/svg11.dtd"><svg t="1583512849203" class="icon" viewBox="0 0 1024 1024" version="1.1" xmlns="http://www.w3.org/2000/svg" p-id="3386" xmlns:xlink="http://www.w3.org/1999/xlink" width="200" height="200"><defs><style type="text/css"></style></defs><path d="M339.536842 595.536842c-45.810526-43.115789-118.568421-43.115789-161.68421 0-21.557895 21.557895-35.031579 51.2-35.031579 80.842105s10.778947 59.284211 35.031579 80.842106c21.557895 21.557895 51.2 32.336842 80.842105 32.336842s59.284211-10.778947 80.842105-32.336842c21.557895-21.557895 35.031579-51.2 35.031579-80.842106s-13.473684-59.284211-35.031579-80.842105z m-26.947368 134.736842c-29.642105 29.642105-80.842105 29.642105-110.484211 0-13.473684-13.473684-21.557895-32.336842-21.557895-53.894737s8.084211-40.421053 21.557895-53.894736c16.168421-16.168421 35.031579-21.557895 53.894737-21.557895s40.421053 8.084211 53.894737 21.557895 21.557895 32.336842 21.557895 53.894736-2.694737 40.421053-18.863158 53.894737z" fill="#101010" p-id="3387"></path><path d="M256 673.684211c8.084211-8.084211 8.084211-18.863158 0-26.947369l-18.863158-18.863158c-8.084211-8.084211-18.863158-8.084211-26.947368 0-8.084211 8.084211-8.084211 18.863158 0 26.947369l18.863158 18.863158c2.694737 2.694737 8.084211 5.389474 13.473684 5.389473s10.778947-2.694737 13.473684-5.389473zM245.221053 687.157895c-10.778947 2.694737-16.168421 10.778947-13.473685 21.557894l5.389474 24.252632c2.694737 8.084211 10.778947 16.168421 18.863158 16.168421h2.694737c10.778947-2.694737 16.168421-10.778947 13.473684-21.557895l-5.389474-26.947368c-2.694737-8.084211-10.778947-16.168421-21.557894-13.473684zM269.473684 662.905263c-2.694737 10.778947 5.389474 18.863158 16.168421 21.557895l24.252632 5.389474h2.694737c8.084211 0 16.168421-5.389474 18.863158-16.168421 2.694737-10.778947-5.389474-18.863158-16.168421-21.557895l-24.252632-5.389474c-10.778947 0-18.863158 5.389474-21.557895 16.168421zM517.389474 423.073684c-45.810526-43.115789-118.568421-43.115789-161.684211 0-21.557895 21.557895-35.031579 51.2-35.031579 80.842105s10.778947 59.284211 35.031579 80.842106c21.557895 21.557895 51.2 32.336842 80.842105 32.336842s59.284211-10.778947 80.842106-32.336842c21.557895-21.557895 35.031579-51.2 35.031579-80.842106s-13.473684-59.284211-35.031579-80.842105z m-26.947369 134.736842c-29.642105 29.642105-80.842105 29.642105-110.48421 0-13.473684-13.473684-21.557895-32.336842-21.557895-53.894737s8.084211-40.421053 21.557895-53.894736c16.168421-16.168421 35.031579-21.557895 53.894737-21.557895s40.421053 8.084211 53.894736 21.557895 21.557895 32.336842 21.557895 53.894736-5.389474 37.726316-18.863158 53.894737z" fill="#101010" p-id="3388"></path><path d="M431.157895 501.221053c8.084211-8.084211 8.084211-18.863158 0-26.947369l-18.863158-18.863158c-8.084211-8.084211-18.863158-8.084211-26.947369 0-8.084211 8.084211-8.084211 18.863158 0 26.947369l18.863158 18.863158c2.694737 2.694737 8.084211 5.389474 13.473685 5.389473s10.778947-2.694737 13.473684-5.389473zM420.378947 514.694737c-10.778947 2.694737-16.168421 10.778947-13.473684 21.557895l5.389474 24.252631c2.694737 8.084211 10.778947 16.168421 18.863158 16.168421h2.694737c10.778947-2.694737 16.168421-10.778947 13.473684-21.557895l-5.389474-24.252631c0-13.473684-10.778947-18.863158-21.557895-16.168421zM447.326316 490.442105c-2.694737 10.778947 5.389474 18.863158 16.168421 21.557895l24.252631 5.389474h2.694737c8.084211 0 16.168421-5.389474 18.863158-16.168421 2.694737-10.778947-5.389474-18.863158-16.168421-21.557895l-24.252631-5.389474c-10.778947 0-21.557895 5.389474-21.557895 16.168421zM692.547368 250.610526c-45.810526-43.115789-118.568421-43.115789-161.68421 0-21.557895 21.557895-35.031579 51.2-35.031579 80.842106s10.778947 59.284211 35.031579 80.842105c21.557895 21.557895 51.2 32.336842 80.842105 32.336842s59.284211-10.778947 80.842105-32.336842c21.557895-21.557895 35.031579-51.2 35.031579-80.842105s-13.473684-59.284211-35.031579-80.842106z m-26.947368 134.736842c-29.642105 29.642105-80.842105 29.642105-110.484211 0-13.473684-13.473684-21.557895-32.336842-21.557894-53.894736s8.084211-40.421053 21.557894-53.894737c16.168421-16.168421 35.031579-21.557895 53.894737-21.557895s40.421053 8.084211 53.894737 21.557895 21.557895 32.336842 21.557895 53.894737-2.694737 37.726316-18.863158 53.894736z" fill="#101010" p-id="3389"></path><path d="M609.010526 328.757895c8.084211-8.084211 8.084211-18.863158 0-26.947369l-18.863158-18.863158c-8.084211-8.084211-18.863158-8.084211-26.947368 0-8.084211 8.084211-8.084211 18.863158 0 26.947369l18.863158 18.863158c2.694737 2.694737 8.084211 5.389474 13.473684 5.389473s10.778947-2.694737 13.473684-5.389473zM598.231579 342.231579c-10.778947 2.694737-16.168421 10.778947-13.473684 21.557895l5.389473 24.252631c2.694737 8.084211 10.778947 16.168421 18.863158 16.168421h2.694737c10.778947-2.694737 16.168421-10.778947 13.473684-21.557894l-5.389473-26.947369c-2.694737-10.778947-10.778947-16.168421-21.557895-13.473684zM622.484211 317.978947c-2.694737 10.778947 5.389474 18.863158 16.168421 21.557895l24.252631 5.389474h2.694737c8.084211 0 16.168421-5.389474 18.863158-16.168421 2.694737-10.778947-5.389474-18.863158-16.168421-21.557895l-24.252632-5.389474c-10.778947 0-18.863158 5.389474-21.557894 16.168421z" fill="#101010" p-id="3390"></path><path d="M652.126316 687.157895l293.726316-293.726316c29.642105-26.947368 43.115789-64.673684 43.115789-105.094737s-16.168421-78.147368-43.115789-105.094737c-56.589474-56.589474-150.905263-56.589474-207.494737 0l-16.168421 16.168421-78.147369-75.452631c-18.863158-16.168421-51.2-16.168421-70.063158 2.694737l-525.473684 512c-8.084211 8.084211-13.473684 21.557895-13.473684 35.031579s5.389474 24.252632 13.473684 35.031578l177.852632 172.463158c10.778947 8.084211 21.557895 13.473684 35.031579 13.473685s24.252632-5.389474 35.031579-13.473685l525.473684-514.694736c8.084211-8.084211 13.473684-21.557895 13.473684-35.031579s-5.389474-24.252632-13.473684-35.031579l-72.757895-72.757895 16.168421-16.168421c43.115789-40.421053 113.178947-40.421053 153.6 0 21.557895 21.557895 32.336842 48.505263 32.336842 78.147368 0 29.642105-10.778947 56.589474-32.336842 78.147369l-293.726316 296.421052c-29.642105 26.947368-43.115789 64.673684-43.115789 105.094737s16.168421 78.147368 43.115789 105.094737 67.368421 43.115789 102.4 43.115789c37.726316 0 75.452632-13.473684 102.4-43.115789 8.084211-8.084211 8.084211-18.863158 0-26.947368-8.084211-8.084211-18.863158-8.084211-26.947368 0-43.115789 40.421053-113.178947 40.421053-153.6 0-21.557895-21.557895-32.336842-48.505263-32.336842-78.147369 0-29.642105 13.473684-56.589474 35.031579-78.147368z m145.515789-353.010527c0 2.694737 0 5.389474-2.694737 8.084211L269.473684 854.231579c-5.389474 5.389474-10.778947 5.389474-16.168421 0l-177.852631-172.463158c-2.694737-2.694737-2.694737-5.389474-2.694737-8.08421 0-2.694737 0-5.389474 2.694737-8.084211l525.473684-512c2.694737-2.694737 5.389474-2.694737 8.08421-2.694737 2.694737 0 5.389474 0 8.084211 2.694737L706.021053 242.526316l86.231579 86.231579c5.389474 0 5.389474 2.694737 5.389473 5.389473z" fill="#101010" p-id="3391"></path></svg>