<?xml version="1.0" standalone="no"?><!DOCTYPE svg PUBLIC "-//W3C//DTD SVG 1.1//EN" "http://www.w3.org/Graphics/SVG/1.1/DTD/svg11.dtd"><svg t="1583512832460" class="icon" viewBox="0 0 1024 1024" version="1.1" xmlns="http://www.w3.org/2000/svg" p-id="3013" xmlns:xlink="http://www.w3.org/1999/xlink" width="200" height="200"><defs><style type="text/css"></style></defs><path d="M778.778947 35.031579H245.221053C212.884211 35.031579 188.631579 61.978947 188.631579 94.315789v835.368422c0 32.336842 26.947368 59.284211 59.28421 59.28421h530.863158c32.336842 0 59.284211-26.947368 59.284211-59.28421v-835.368422c-2.694737-32.336842-26.947368-59.284211-59.284211-59.28421z m18.863158 894.652632c0 10.778947-10.778947 21.557895-21.557894 21.557894h-43.11579V512c0-10.778947-8.084211-18.863158-18.863158-18.863158s-18.863158 8.084211-18.863158 18.863158v439.242105H326.063158V512c0-10.778947-8.084211-18.863158-18.863158-18.863158s-18.863158 8.084211-18.863158 18.863158v439.242105H245.221053c-10.778947 0-21.557895-10.778947-21.557895-21.557894v-835.368422c0-10.778947 10.778947-21.557895 21.557895-21.557894h530.863158c10.778947 0 21.557895 10.778947 21.557894 21.557894v835.368422z" fill="#101010" p-id="3014"></path><path d="M606.315789 493.136842h-185.936842c-10.778947 0-18.863158 8.084211-18.863158 18.863158s8.084211 18.863158 18.863158 18.863158h185.936842c10.778947 0 18.863158-8.084211 18.863158-18.863158s-10.778947-18.863158-18.863158-18.863158zM606.315789 641.347368h-185.936842c-10.778947 0-18.863158 8.084211-18.863158 18.863158s8.084211 18.863158 18.863158 18.863158h185.936842c10.778947 0 18.863158-8.084211 18.863158-18.863158s-10.778947-18.863158-18.863158-18.863158zM606.315789 568.589474h-185.936842c-10.778947 0-18.863158 8.084211-18.863158 18.863158s8.084211 18.863158 18.863158 18.863157h185.936842c10.778947 0 18.863158-8.084211 18.863158-18.863157s-10.778947-18.863158-18.863158-18.863158zM547.031579 762.610526c-8.084211 8.084211-8.084211 18.863158 0 26.947369 8.084211 8.084211 13.473684 21.557895 13.473684 32.336842 0 13.473684-5.389474 24.252632-13.473684 32.336842-8.084211 8.084211-21.557895 13.473684-32.336842 13.473684-13.473684 0-24.252632-5.389474-32.336842-13.473684-16.168421-16.168421-16.168421-43.115789-2.694737-61.978947 8.084211-8.084211 5.389474-18.863158-2.694737-26.947369-8.084211-8.084211-18.863158-5.389474-26.947368 2.694737-29.642105 32.336842-26.947368 80.842105 2.694736 113.178947 16.168421 16.168421 35.031579 24.252632 59.284211 24.252632h2.694737c21.557895 0 43.115789-8.084211 59.28421-24.252632 16.168421-16.168421 24.252632-35.031579 24.252632-59.28421s-8.084211-43.115789-24.252632-59.284211c-8.084211-8.084211-21.557895-8.084211-26.947368 0z" fill="#101010" p-id="3015"></path><path d="M530.863158 808.421053v-59.284211c0-10.778947-8.084211-18.863158-18.863158-18.863158s-18.863158 8.084211-18.863158 18.863158V808.421053c0 10.778947 8.084211 18.863158 18.863158 18.863158s18.863158-8.084211 18.863158-18.863158zM706.021053 137.431579H317.978947c-16.168421 0-29.642105 13.473684-29.642105 29.642105v218.273684c0 16.168421 13.473684 29.642105 29.642105 29.642106h388.042106c16.168421 0 29.642105-13.473684 29.642105-29.642106V167.073684c0-16.168421-13.473684-29.642105-29.642105-29.642105z m-218.273685 237.136842l72.757895-199.410526h80.842105L565.894737 374.568421h-78.147369z m-161.68421-199.410526h191.326316l-72.757895 199.410526h-118.568421V175.157895z m371.873684 199.410526h-88.926316l72.757895-199.410526h16.168421v199.410526z" fill="#101010" p-id="3016"></path></svg>