<?xml version="1.0" standalone="no"?><!DOCTYPE svg PUBLIC "-//W3C//DTD SVG 1.1//EN" "http://www.w3.org/Graphics/SVG/1.1/DTD/svg11.dtd"><svg t="1583512871287" class="icon" viewBox="0 0 1024 1024" version="1.1" xmlns="http://www.w3.org/2000/svg" p-id="4135" xmlns:xlink="http://www.w3.org/1999/xlink" width="200" height="200"><defs><style type="text/css"></style></defs><path d="M988.968421 412.294737c0-21.557895-5.389474-56.589474-24.252632-88.926316l-137.431578-212.88421c-26.947368-48.505263-70.063158-75.452632-123.957895-75.452632H323.368421c-53.894737 0-99.705263 26.947368-123.957895 75.452632L61.978947 323.368421c-18.863158 35.031579-21.557895 67.368421-24.252631 88.926316v353.010526c0 59.284211 48.505263 107.789474 107.789473 107.789474h48.505264L242.526316 978.189474c2.694737 2.694737 2.694737 5.389474 5.389473 5.389473h2.694737c2.694737 2.694737 5.389474 2.694737 8.084211 2.694737h80.842105c2.694737 0 5.389474 0 8.084211-2.694737h2.694736c2.694737-2.694737 5.389474-2.694737 5.389474-5.389473l48.505263-105.094737h253.305263l48.505264 105.094737c2.694737 2.694737 2.694737 5.389474 5.389473 5.389473h2.694737c2.694737 2.694737 5.389474 2.694737 8.084211 2.694737h80.842105c2.694737 0 5.389474 0 8.08421-2.694737h2.694737c2.694737-2.694737 5.389474-2.694737 5.389474-5.389473l48.505263-105.094737h2.694737c59.284211 0 107.789474-48.505263 107.789474-107.789474V412.294737h10.778947z m-660.210526 538.947368h-56.589474l-37.726316-78.147368h132.042106l-37.726316 78.147368z m468.88421 0h-56.589473l-37.726316-78.147368H835.368421l-37.726316 78.147368z m83.536842-115.873684H142.821053c-40.421053 0-70.063158-32.336842-70.063158-70.063158v-86.231579h48.505263v59.284211c0 10.778947 8.084211 18.863158 18.863158 18.863158s18.863158-8.084211 18.863158-18.863158v-59.284211h40.421052v59.284211c0 10.778947 8.084211 18.863158 18.863158 18.863158s18.863158-8.084211 18.863158-18.863158v-59.284211h40.421053v59.284211c0 10.778947 8.084211 18.863158 18.863158 18.863158s18.863158-8.084211 18.863158-18.863158v-59.284211h40.421052v59.284211c0 10.778947 8.084211 18.863158 18.863158 18.863158s18.863158-8.084211 18.863158-18.863158v-59.284211h40.421053v59.284211c0 10.778947 8.084211 18.863158 18.863157 18.863158s18.863158-8.084211 18.863158-18.863158v-59.284211H512v59.284211c0 10.778947 8.084211 18.863158 18.863158 18.863158s18.863158-8.084211 18.863158-18.863158v-59.284211h40.421052v59.284211c0 10.778947 8.084211 18.863158 18.863158 18.863158s18.863158-8.084211 18.863158-18.863158v-59.284211h40.421053v59.284211c0 10.778947 8.084211 18.863158 18.863158 18.863158s18.863158-8.084211 18.863158-18.863158v-78.147369c0-10.778947-8.084211-18.863158-18.863158-18.863158H72.757895v-158.989473h48.505263v59.28421c0 10.778947 8.084211 18.863158 18.863158 18.863158s18.863158-8.084211 18.863158-18.863158v-59.28421h40.421052v59.28421c0 10.778947 8.084211 18.863158 18.863158 18.863158s18.863158-8.084211 18.863158-18.863158v-59.28421h40.421053v59.28421c0 10.778947 8.084211 18.863158 18.863158 18.863158s18.863158-8.084211 18.863158-18.863158v-59.28421h40.421052v59.28421c0 10.778947 8.084211 18.863158 18.863158 18.863158s18.863158-8.084211 18.863158-18.863158v-59.28421h40.421053v59.28421c0 10.778947 8.084211 18.863158 18.863157 18.863158s18.863158-8.084211 18.863158-18.863158v-59.28421H512v59.28421c0 10.778947 8.084211 18.863158 18.863158 18.863158s18.863158-8.084211 18.863158-18.863158v-59.28421h40.421052v59.28421c0 10.778947 8.084211 18.863158 18.863158 18.863158s18.863158-8.084211 18.863158-18.863158v-59.28421h40.421053v59.28421c0 10.778947 8.084211 18.863158 18.863158 18.863158s18.863158-8.084211 18.863158-18.863158v-78.147368c0-10.778947-8.084211-18.863158-18.863158-18.863158H72.757895v-32.336842c0-18.863158 2.694737-45.810526 18.863158-70.063158l137.431579-210.189474c24.252632-45.810526 64.673684-56.589474 91.621052-56.589473H700.631579c29.642105 0 67.368421 10.778947 91.621053 56.589473l137.431579 210.189474c13.473684 26.947368 18.863158 53.894737 18.863157 72.757895v353.010526c2.694737 37.726316-29.642105 67.368421-67.368421 67.368421z" fill="#101010" p-id="4136"></path><path d="M926.989474 444.631579h-150.905263c-10.778947 0-18.863158 8.084211-18.863158 18.863158v37.726316c0 10.778947 8.084211 18.863158 18.863158 18.863158s18.863158-8.084211 18.863157-18.863158v-18.863158h132.042106c10.778947 0 18.863158-8.084211 18.863158-18.863158s-8.084211-18.863158-18.863158-18.863158zM926.989474 576.673684h-150.905263c-10.778947 0-18.863158 8.084211-18.863158 18.863158v37.726316c0 10.778947 8.084211 18.863158 18.863158 18.863158s18.863158-8.084211 18.863157-18.863158v-18.863158h132.042106c10.778947 0 18.863158-8.084211 18.863158-18.863158s-8.084211-18.863158-18.863158-18.863158zM926.989474 706.021053h-150.905263c-10.778947 0-18.863158 8.084211-18.863158 18.863158v37.726315c0 10.778947 8.084211 18.863158 18.863158 18.863158s18.863158-8.084211 18.863157-18.863158v-18.863158h132.042106c10.778947 0 18.863158-8.084211 18.863158-18.863157s-8.084211-18.863158-18.863158-18.863158zM506.610526 134.736842c-142.821053 0-250.610526 53.894737-250.610526 123.957895s107.789474 123.957895 250.610526 123.957895 250.610526-53.894737 250.610527-123.957895-107.789474-123.957895-250.610527-123.957895z m0 212.884211c-123.957895 0-212.884211-45.810526-212.88421-86.231579s86.231579-86.231579 212.88421-86.231579c123.957895 0 212.884211 45.810526 212.884211 86.231579s-88.926316 86.231579-212.884211 86.231579z" fill="#101010" p-id="4137"></path><path d="M493.136842 231.747368c21.557895-8.084211 56.589474-5.389474 78.147369-2.694736-10.778947 0-18.863158 10.778947-16.168422 21.557894 0 10.778947 8.084211 16.168421 18.863158 16.168421h2.694737c24.252632-2.694737 35.031579-13.473684 40.421053-21.557894 0-8.084211 2.694737-18.863158-2.694737-29.642106-13.473684-32.336842-99.705263-29.642105-132.042105-18.863158-10.778947 2.694737-16.168421 13.473684-13.473684 24.252632 2.694737 10.778947 13.473684 16.168421 24.252631 10.778947zM450.021053 231.747368c-48.505263-5.389474-78.147368 0-91.621053 13.473685-8.084211 8.084211-13.473684 16.168421-13.473684 29.642105 0 10.778947 5.389474 21.557895 13.473684 29.642105 8.084211 8.084211 24.252632 18.863158 51.2 18.863158 10.778947 0 18.863158-8.084211 18.863158-18.863158 0-10.778947-8.084211-18.863158-18.863158-18.863158-18.863158 0-24.252632-5.389474-24.252632-10.778947 0 0 8.084211-8.084211 64.673685-2.694737 10.778947 0 18.863158-5.389474 21.557894-16.168421-2.694737-13.473684-10.778947-21.557895-21.557894-24.252632z" fill="#101010" p-id="4138"></path><path d="M625.178947 269.473684c-18.863158 16.168421-37.726316 21.557895-51.2 21.557895-35.031579 2.694737-56.589474-10.778947-61.978947-13.473684-8.084211-5.389474-21.557895-2.694737-26.947368 5.389473-5.389474 8.084211-2.694737 21.557895 5.389473 26.947369 10.778947 5.389474 35.031579 18.863158 75.452632 18.863158h8.08421c18.863158 0 48.505263-8.084211 75.452632-32.336842 8.084211-8.084211 8.084211-18.863158 0-26.947369-2.694737-8.084211-16.168421-8.084211-24.252632 0z" fill="#101010" p-id="4139"></path></svg>