<?xml version="1.0" standalone="no"?><!DOCTYPE svg PUBLIC "-//W3C//DTD SVG 1.1//EN" "http://www.w3.org/Graphics/SVG/1.1/DTD/svg11.dtd"><svg t="1583512924678" class="icon" viewBox="0 0 1024 1024" version="1.1" xmlns="http://www.w3.org/2000/svg" p-id="5998" xmlns:xlink="http://www.w3.org/1999/xlink" width="200" height="200"><defs><style type="text/css"></style></defs><path d="M501.221053 706.021053c18.863158 0 37.726316-16.168421 37.726315-37.726316V592.842105h121.263158c67.368421 0 126.652632-24.252632 164.378948-67.368421 35.031579-37.726316 53.894737-88.926316 59.28421-150.905263 70.063158-13.473684 105.094737-56.589474 105.094737-126.652632-5.389474-153.6-153.6-212.884211-247.915789-212.88421H285.642105c-102.4 0-250.610526 105.094737-250.610526 266.778947v70.063158c0 29.642105 24.252632 53.894737 53.894737 53.894737h16.168421c5.389474 97.010526 61.978947 167.073684 140.126316 167.073684h88.926315v75.452632c0 18.863158 16.168421 37.726316 37.726316 37.726316h43.11579v29.642105c0 64.673684 53.894737 118.568421 118.568421 118.568421h35.031579v64.673684c0 37.726316 32.336842 70.063158 70.063158 70.063158h126.652631c37.726316 0 70.063158-32.336842 70.063158-70.063158v-167.073684c0-37.726316-32.336842-70.063158-70.063158-70.063158h-126.652631c-37.726316 0-70.063158 32.336842-70.063158 70.063158v64.673684h-35.031579c-43.115789 0-80.842105-35.031579-80.842106-80.842105v-29.642105h48.505264z m105.094736 45.810526c0-18.863158 13.473684-32.336842 32.336843-32.336842h126.652631c18.863158 0 32.336842 13.473684 32.336842 32.336842v167.073684c0 18.863158-13.473684 32.336842-32.336842 32.336842h-126.652631c-18.863158 0-32.336842-13.473684-32.336843-32.336842v-64.673684h78.147369c10.778947 0 18.863158-8.084211 18.863158-18.863158s-8.084211-18.863158-18.863158-18.863158h-78.147369v-64.673684zM142.821053 423.073684h296.421052c29.642105 0 59.284211-10.778947 83.536842-29.642105 8.084211 29.642105 24.252632 56.589474 48.505264 75.452632 26.947368 24.252632 64.673684 37.726316 99.705263 37.726315h18.863158c72.757895-13.473684 115.873684-75.452632 115.873684-169.768421 0-72.757895-13.473684-123.957895-86.231579-177.852631 10.778947-5.389474 24.252632-10.778947 40.421052-16.168421 10.778947-2.694737 16.168421-13.473684 13.473685-24.252632-2.694737-10.778947-13.473684-16.168421-24.252632-13.473684-29.642105 8.084211-53.894737 21.557895-72.757895 37.726316l-2.694736 2.694736c-26.947368 21.557895-48.505263 53.894737-72.757895 99.705264-35.031579 67.368421-99.705263 140.126316-161.684211 140.126315h-350.315789c-8.084211 0-16.168421-8.084211-16.168421-16.168421v-70.063158c0-140.126316 126.652632-229.052632 212.88421-229.052631h455.410527c53.894737 0 204.8 32.336842 210.189473 175.157895 0 48.505263-18.863158 75.452632-67.368421 88.926315 0-16.168421 0-35.031579-2.694737-51.2 0-10.778947-10.778947-18.863158-21.557894-16.168421-10.778947 0-18.863158 10.778947-16.168421 21.557895 10.778947 88.926316-8.084211 164.378947-48.505264 210.189474-32.336842 37.726316-78.147368 56.589474-137.431579 56.589473H245.221053c-56.589474 0-97.010526-53.894737-102.4-132.042105z m490.442105-158.989473c18.863158-37.726316 35.031579-61.978947 53.894737-78.147369 67.368421 45.810526 80.842105 86.231579 80.842105 153.6 0 75.452632-29.642105 123.957895-83.536842 132.042105-32.336842 2.694737-61.978947-5.389474-86.231579-26.947368-21.557895-18.863158-37.726316-48.505263-37.726316-75.452632 26.947368-32.336842 53.894737-70.063158 72.757895-105.094736zM371.873684 592.842105h126.652632v75.452632h-64.673684-2.694737-59.284211V592.842105z" fill="#101010" p-id="5999"></path></svg>