<?xml version="1.0" standalone="no"?><!DOCTYPE svg PUBLIC "-//W3C//DTD SVG 1.1//EN" "http://www.w3.org/Graphics/SVG/1.1/DTD/svg11.dtd"><svg t="1583512902387" class="icon" viewBox="0 0 1024 1024" version="1.1" xmlns="http://www.w3.org/2000/svg" p-id="5254" xmlns:xlink="http://www.w3.org/1999/xlink" width="200" height="200"><defs><style type="text/css"></style></defs><path d="M835.368421 565.894737c-5.389474-8.084211-16.168421-13.473684-24.252632-16.168421l18.863158-460.8c0-16.168421-2.694737-29.642105-13.473684-40.421053-10.778947-10.778947-24.252632-16.168421-40.421052-16.168421H247.915789c-18.863158 2.694737-32.336842 8.084211-40.421052 18.863158-10.778947 8.084211-16.168421 21.557895-13.473684 37.726316l18.863158 460.8c-8.084211 2.694737-18.863158 8.084211-24.252632 16.168421-13.473684 18.863158-5.389474 48.505263-2.694737 59.28421 5.389474 26.947368 32.336842 32.336842 48.505263 32.336842h94.31579v35.031579c0 16.168421 13.473684 26.947368 24.252631 35.031579v24.252632c-16.168421 2.694737-26.947368 16.168421-26.947368 32.336842l-10.778947 169.768421c0 18.863158 16.168421 35.031579 35.031578 35.031579h86.231579c18.863158 0 35.031579-16.168421 35.031579-37.726316l-13.473684-167.073684c0-16.168421-10.778947-29.642105-26.947368-35.031579v-24.252631c10.778947-5.389474 21.557895-16.168421 24.252631-35.031579v-35.031579H565.894737v35.031579c0 16.168421 13.473684 26.947368 24.252631 35.031579v24.252631c-16.168421 2.694737-26.947368 16.168421-26.947368 32.336842l-10.778947 169.768421c0 18.863158 16.168421 35.031579 35.031579 35.031579H673.684211c18.863158 0 35.031579-16.168421 35.031578-37.726316l-13.473684-167.073684c0-16.168421-10.778947-29.642105-26.947368-35.031579v-24.252631c10.778947-5.389474 21.557895-16.168421 24.252631-35.031579v-35.031579h97.010527c16.168421 0 43.115789-2.694737 48.505263-29.642105 2.694737-8.084211 10.778947-40.421053-2.694737-56.589474zM353.010526 951.242105l8.084211-164.378947h59.28421l13.473685 164.378947h-80.842106z m67.368421-261.389473c0 2.694737-5.389474 5.389474-10.778947 8.08421-8.084211 2.694737-13.473684 10.778947-13.473684 18.863158v35.031579h-5.389474v-35.031579c0-8.084211-5.389474-16.168421-13.473684-18.863158-2.694737 0-8.084211-5.389474-10.778947-5.389474v-35.031579h51.2l2.694736 32.336843z m169.768421 261.389473l8.084211-164.378947h59.28421l13.473685 164.378947h-80.842106z m64.673685-261.389473c0 2.694737-5.389474 5.389474-10.778948 8.08421-8.084211 2.694737-13.473684 10.778947-13.473684 18.863158v35.031579h-5.389474v-35.031579c0-8.084211-5.389474-16.168421-13.473684-18.863158-2.694737 0-8.084211-5.389474-10.778947-5.389474v-35.031579h51.2l2.694737 32.336843z m148.210526-72.757895c-2.694737 2.694737-13.473684 2.694737-18.863158 2.694737H242.526316c-5.389474 0-16.168421 0-18.863158-2.694737-2.694737-10.778947-2.694737-26.947368-2.694737-26.947369l10.778947-5.389473c10.778947-5.389474 21.557895-18.863158 18.863158-35.031579L231.747368 88.926316c0-2.694737 0-8.084211 2.694737-13.473684 2.694737-2.694737 8.084211-2.694737 13.473684-2.694737h530.863158c5.389474 0 10.778947 0 13.473685 2.694737 2.694737 2.694737 2.694737 8.084211 2.694736 10.778947l-21.557894 460.8c0 13.473684 8.084211 29.642105 21.557894 32.336842 5.389474 2.694737 8.084211 5.389474 8.084211 2.694737 2.694737 8.084211 2.694737 24.252632 0 35.031579z" fill="#101010" p-id="5255"></path><path d="M393.431579 350.315789h-59.284211c-18.863158 0-32.336842 13.473684-32.336842 32.336843v172.463157c0 18.863158 13.473684 32.336842 32.336842 32.336843h59.284211c18.863158 0 32.336842-13.473684 32.336842-32.336843v-172.463157c0-18.863158-13.473684-32.336842-32.336842-32.336843z m-5.389474 37.726316v115.873684h-48.505263v-115.873684h48.505263z m-48.505263 161.684211V538.947368h48.505263v8.084211h-48.505263zM689.852632 350.315789h-59.284211c-18.863158 0-32.336842 13.473684-32.336842 32.336843v172.463157c0 18.863158 13.473684 32.336842 32.336842 32.336843h59.284211c18.863158 0 32.336842-13.473684 32.336842-32.336843v-172.463157c0-18.863158-16.168421-32.336842-32.336842-32.336843z m-5.389474 37.726316v115.873684h-48.505263v-115.873684h48.505263z m-48.505263 161.684211V538.947368h48.505263v8.084211h-48.505263zM541.642105 350.315789h-59.28421c-18.863158 0-32.336842 13.473684-32.336842 32.336843v172.463157c0 18.863158 13.473684 32.336842 32.336842 32.336843h59.28421c18.863158 0 32.336842-13.473684 32.336842-32.336843v-172.463157c0-18.863158-13.473684-32.336842-32.336842-32.336843z m-5.389473 37.726316v51.2h-48.505264v-51.2h48.505264z m-48.505264 161.684211v-72.757895h48.505264v72.757895h-48.505264zM679.073684 118.568421c-2.694737 0-75.452632-24.252632-164.378947-24.252632-86.231579 0-161.684211 24.252632-164.378948 24.252632-35.031579 8.084211-56.589474 40.421053-51.2 75.452632l26.947369 80.842105c10.778947 29.642105 32.336842 48.505263 59.28421 48.505263h13.473685l75.452631-13.473684c5.389474 0 10.778947-5.389474 13.473684-10.778948 5.389474-8.084211 8.084211-18.863158 10.778948-21.557894 5.389474-5.389474 10.778947-8.084211 16.168421-8.084211 0 0 8.084211 0 13.473684 8.084211 2.694737 2.694737 8.084211 10.778947 10.778947 21.557894 2.694737 5.389474 8.084211 10.778947 13.473685 10.778948l75.452631 13.473684h13.473684c26.947368 0 48.505263-16.168421 59.284211-48.505263l26.947368-83.536842c8.084211-32.336842-13.473684-64.673684-48.505263-72.757895z m10.778948 61.978947l-26.947369 80.842106c-8.084211 24.252632-21.557895 21.557895-29.642105 21.557894L565.894737 269.473684c-2.694737-8.084211-8.084211-16.168421-13.473684-21.557895l-5.389474-83.536842V161.684211v-2.694737l-2.694737-2.694737s0-2.694737-2.694737-2.694737l-2.694737-2.694737s-2.694737 0-2.694736-2.694737H528.168421h-5.389474s-2.694737 0-2.694736 2.694737c0 0-2.694737 0-2.694737 2.694737l-2.694737 2.694737s0 2.694737-2.694737 2.694737L476.968421 242.526316l-8.08421 8.08421c-2.694737 5.389474-8.084211 13.473684-13.473685 21.557895l-67.368421 13.473684c-8.084211 0-21.557895 2.694737-29.642105-21.557894l-26.947368-78.147369c-2.694737-18.863158 13.473684-26.947368 24.252631-29.642105 0 0 75.452632-24.252632 153.6-24.252632 83.536842 0 153.6 24.252632 156.294737 24.252632 10.778947 2.694737 29.642105 10.778947 24.252632 24.252631z" fill="#101010" p-id="5256"></path></svg>