<?xml version="1.0" standalone="no"?><!DOCTYPE svg PUBLIC "-//W3C//DTD SVG 1.1//EN" "http://www.w3.org/Graphics/SVG/1.1/DTD/svg11.dtd"><svg t="1583512936117" class="icon" viewBox="0 0 1024 1024" version="1.1" xmlns="http://www.w3.org/2000/svg" p-id="6244" xmlns:xlink="http://www.w3.org/1999/xlink" width="200" height="200"><defs><style type="text/css"></style></defs><path d="M512 988.968421c-264.084211 0-476.968421-215.578947-476.968421-476.968421S247.915789 35.031579 512 35.031579 988.968421 247.915789 988.968421 512 776.084211 988.968421 512 988.968421z m0-916.210526C269.473684 72.757895 72.757895 269.473684 72.757895 512S269.473684 951.242105 512 951.242105 951.242105 754.526316 951.242105 512 754.526316 72.757895 512 72.757895z" fill="#101010" p-id="6245"></path><path d="M512 918.905263c-226.357895 0-409.6-183.242105-409.6-409.6 0-226.357895 183.242105-409.6 409.6-409.6 226.357895 0 409.6 183.242105 409.6 409.6 0 226.357895-183.242105 409.6-409.6 409.6z m0-778.778947C307.2 140.126316 140.126316 307.2 140.126316 512S307.2 881.178947 512 881.178947 883.873684 716.8 883.873684 512 716.8 140.126316 512 140.126316z" fill="#101010" p-id="6246"></path><path d="M741.052632 547.031579h-458.105264c-10.778947 0-18.863158-8.084211-18.863157-18.863158V377.263158c0-10.778947 8.084211-18.863158 18.863157-18.863158h458.105264c10.778947 0 18.863158 8.084211 18.863157 18.863158v150.905263c0 8.084211-8.084211 18.863158-18.863157 18.863158z m-439.242106-37.726316h420.378948v-113.178947H301.810526v113.178947zM361.094737 773.389474c-5.389474 0-8.084211-2.694737-10.778948-5.389474-8.084211-5.389474-8.084211-18.863158-2.694736-26.947368l35.031579-43.11579c5.389474-8.084211 18.863158-8.084211 26.947368-2.694737 8.084211 5.389474 8.084211 18.863158 2.694737 26.947369L377.263158 765.305263c-5.389474 5.389474-10.778947 8.084211-16.168421 8.084211zM428.463158 773.389474c-5.389474 0-8.084211-2.694737-10.778947-5.389474-8.084211-5.389474-8.084211-18.863158-2.694737-26.947368l35.031579-43.11579c5.389474-8.084211 18.863158-8.084211 26.947368-2.694737 8.084211 5.389474 8.084211 18.863158 2.694737 26.947369l-35.031579 43.115789c-5.389474 5.389474-10.778947 8.084211-16.168421 8.084211zM495.831579 773.389474c-5.389474 0-8.084211-2.694737-10.778947-5.389474-8.084211-5.389474-8.084211-18.863158-2.694737-26.947368l35.031579-43.11579c5.389474-8.084211 18.863158-8.084211 26.947368-2.694737 8.084211 5.389474 8.084211 18.863158 2.694737 26.947369L512 765.305263c-5.389474 5.389474-10.778947 8.084211-16.168421 8.084211zM560.505263 773.389474c-5.389474 0-8.084211-2.694737-10.778947-5.389474-8.084211-5.389474-8.084211-18.863158-2.694737-26.947368l35.031579-43.11579c5.389474-8.084211 18.863158-8.084211 26.947368-2.694737 8.084211 5.389474 8.084211 18.863158 2.694737 26.947369l-35.031579 43.115789c-5.389474 5.389474-10.778947 8.084211-16.168421 8.084211zM627.873684 773.389474c-5.389474 0-8.084211-2.694737-10.778947-5.389474-8.084211-5.389474-8.084211-18.863158-2.694737-26.947368L646.736842 700.631579c5.389474-8.084211 18.863158-8.084211 26.947369-2.694737 8.084211 5.389474 8.084211 18.863158 2.694736 26.947369l-35.031579 43.115789c-2.694737 2.694737-8.084211 5.389474-13.473684 5.389474z" fill="#101010" p-id="6247"></path></svg>