<?xml version="1.0" standalone="no"?><!DOCTYPE svg PUBLIC "-//W3C//DTD SVG 1.1//EN" "http://www.w3.org/Graphics/SVG/1.1/DTD/svg11.dtd"><svg t="1583512801707" class="icon" viewBox="0 0 1024 1024" version="1.1" xmlns="http://www.w3.org/2000/svg" p-id="2138" xmlns:xlink="http://www.w3.org/1999/xlink" width="200" height="200"><defs><style type="text/css"></style></defs><path d="M670.989474 86.231579H353.010526c-13.473684 0-21.557895 10.778947-21.557894 21.557895v161.68421c0 13.473684 10.778947 21.557895 21.557894 21.557895H673.684211c13.473684 0 21.557895-10.778947 21.557894-21.557895V107.789474c0-10.778947-10.778947-21.557895-24.252631-21.557895zM366.484211 180.547368h126.652631v18.863158h-126.652631v-18.863158z m164.378947 0h126.652631v18.863158h-126.652631v-18.863158z m126.652631-37.726315h-126.652631v-18.863158h126.652631v18.863158z m-164.378947-18.863158v18.863158h-126.652631v-18.863158h126.652631z m-126.652631 113.178947h126.652631v16.168421h-126.652631v-16.168421z m164.378947 16.168421v-16.168421h126.652631v16.168421h-126.652631zM660.210526 353.010526c10.778947 0 18.863158-8.084211 18.863158-18.863158s-8.084211-18.863158-18.863158-18.863157h-83.536842c-10.778947 0-18.863158 8.084211-18.863158 18.863157s8.084211 18.863158 18.863158 18.863158h83.536842z" fill="#101010" p-id="2139"></path><path d="M695.242105 35.031579H328.757895c-26.947368 0-51.2 21.557895-51.2 51.2v851.536842c0 26.947368 21.557895 51.2 51.2 51.2h366.48421c26.947368 0 51.2-21.557895 51.2-51.2V86.231579c0-29.642105-24.252632-51.2-51.2-51.2z m13.473684 902.736842c0 8.084211-5.389474 13.473684-13.473684 13.473684H328.757895c-8.084211 0-13.473684-5.389474-13.473684-13.473684V86.231579c0-8.084211 5.389474-13.473684 13.473684-13.473684h366.48421c8.084211 0 13.473684 5.389474 13.473684 13.473684v851.536842z" fill="#101010" p-id="2140"></path><path d="M673.684211 630.568421H350.315789c-13.473684 0-21.557895 10.778947-21.557894 21.557895V916.210526c0 13.473684 10.778947 21.557895 21.557894 21.557895h323.368422c13.473684 0 21.557895-10.778947 21.557894-21.557895v-264.08421c0-13.473684-10.778947-21.557895-21.557894-21.557895z m-142.821053 145.51579h126.652631v16.168421h-126.652631v-16.168421z m-37.726316 16.168421h-126.652631v-16.168421h126.652631v16.168421z m164.378947-53.894737h-126.652631v-16.168421h126.652631v16.168421z m-164.378947 0h-126.652631v-16.168421h126.652631v16.168421z m-126.652631 91.621052h126.652631v16.168421h-126.652631v-16.168421z m164.378947 0h126.652631v16.168421h-126.652631v-16.168421z m126.652631-145.515789h-126.652631v-16.168421h126.652631v16.168421z m-164.378947-16.168421v16.168421h-126.652631v-16.168421h126.652631z m-126.652631 215.578947h126.652631v16.168421h-126.652631v-16.168421z m164.378947 16.168421v-16.168421h126.652631v16.168421h-126.652631z" fill="#101010" p-id="2141"></path></svg>