<?xml version="1.0" standalone="no"?><!DOCTYPE svg PUBLIC "-//W3C//DTD SVG 1.1//EN" "http://www.w3.org/Graphics/SVG/1.1/DTD/svg11.dtd"><svg t="1583512860053" class="icon" viewBox="0 0 1024 1024" version="1.1" xmlns="http://www.w3.org/2000/svg" p-id="3764" xmlns:xlink="http://www.w3.org/1999/xlink" width="200" height="200"><defs><style type="text/css"></style></defs><path d="M988.968421 158.989474C983.578947 105.094737 940.463158 107.789474 916.210526 107.789474H204.8c-29.642105 0-61.978947 5.389474-80.842105 43.115789l-75.452632 202.105263c-8.084211 21.557895-13.473684 43.115789-13.473684 64.673685v37.726315c0 26.947368 21.557895 48.505263 48.505263 48.505263h21.557895l16.168421 29.642106c2.694737 2.694737 2.694737 5.389474 5.389474 8.08421 10.778947 18.863158 21.557895 40.421053 59.28421 40.421053h229.052632v191.326316c0 26.947368-10.778947 37.726316-37.726316 37.726315H99.705263c-10.778947 0-18.863158 8.084211-18.863158 18.863158s8.084211 18.863158 18.863158 18.863158H377.263158c48.505263 0 75.452632-29.642105 75.452631-75.452631v-191.326316h51.2v196.715789c0 45.810526-37.726316 99.705263-86.231578 99.705264H99.705263c-10.778947 0-18.863158 8.084211-18.863158 18.863157s8.084211 18.863158 18.863158 18.863158h317.978948c70.063158 0 123.957895-72.757895 123.957894-137.431579v-196.715789h256c29.642105 0 53.894737-24.252632 53.894737-53.894737v-24.252632c0-10.778947-8.084211-18.863158-18.863158-18.863157s-18.863158 8.084211-18.863158 18.863157v24.252632c0 8.084211-8.084211 16.168421-16.168421 16.168421H185.936842c-13.473684 0-18.863158-5.389474-26.947368-21.557895-2.694737-2.694737-2.694737-5.389474-5.389474-8.08421l-5.389474-10.778948h374.568421c43.115789 0 59.284211-26.947368 67.368421-40.421052l2.694737-2.694737V458.105263l88.926316-215.578947c2.694737-2.694737 8.084211-10.778947 35.031579-10.778948h75.452632v194.021053c0 8.084211-5.389474 13.473684-13.473685 13.473684h-129.347368c-10.778947 0-18.863158 8.084211-18.863158 18.863158s8.084211 18.863158 18.863158 18.863158H781.473684c26.947368 0 51.2-21.557895 51.2-51.2V229.052632h51.2c10.778947 0 18.863158-8.084211 18.863158-18.863158s-8.084211-18.863158-18.863158-18.863158h-164.378947c-29.642105 0-51.2 10.778947-64.673684 26.947368l-2.694737 2.694737-88.926316 215.578947c-8.084211 13.473684-16.168421 24.252632-35.031579 24.252632H83.536842c-5.389474 0-10.778947-5.389474-10.778947-10.778947v-37.726316c0-16.168421 2.694737-32.336842 10.778947-51.2l75.452632-202.105263c8.084211-16.168421 16.168421-21.557895 48.505263-21.557895h711.410526c29.642105 0 32.336842 2.694737 35.031579 16.168421v18.863158c0 18.863158-2.694737 37.726316-10.778947 53.894737l-80.842106 215.578947c-2.694737 10.778947 0 21.557895 10.778948 24.252632h5.389474c8.084211 0 13.473684-5.389474 18.863157-13.473685l80.842106-215.578947c10.778947-21.557895 13.473684-45.810526 13.473684-70.063158l-2.694737-8.08421z" fill="#101010" p-id="3765"></path></svg>