<?xml version="1.0" standalone="no"?><!DOCTYPE svg PUBLIC "-//W3C//DTD SVG 1.1//EN" "http://www.w3.org/Graphics/SVG/1.1/DTD/svg11.dtd"><svg t="1583512757346" class="icon" viewBox="0 0 1024 1024" version="1.1" xmlns="http://www.w3.org/2000/svg" p-id="1141" xmlns:xlink="http://www.w3.org/1999/xlink" width="200" height="200"><defs><style type="text/css"></style></defs><path d="M986.273684 393.431579l-210.189473-167.073684V126.652632c0-13.473684-10.778947-24.252632-24.252632-24.252632s-24.252632 10.778947-24.252632 24.252632V188.631579l-134.736842-107.789474c-43.115789-37.726316-99.705263-37.726316-148.210526 0l-404.210526 317.978948c-10.778947 8.084211-13.473684 24.252632-2.694737 35.031579 5.389474 5.389474 10.778947 8.084211 18.863158 8.08421 5.389474 0 10.778947-2.694737 16.168421-5.389474L145.515789 377.263158v409.6c0 13.473684 10.778947 24.252632 24.252632 24.252631s24.252632-10.778947 24.252632-24.252631V339.536842l277.557894-218.273684c26.947368-24.252632 61.978947-24.252632 86.231579 0l277.557895 215.578947v450.021053c0 13.473684 10.778947 24.252632 24.252632 24.252631s24.252632-10.778947 24.252631-24.252631V374.568421l72.757895 56.589474c5.389474 2.694737 10.778947 5.389474 16.168421 5.389473 8.084211 0 13.473684-2.694737 18.863158-8.08421 5.389474-10.778947 2.694737-26.947368-5.389474-35.031579z" fill="#101010" p-id="1142"></path><path d="M716.8 382.652632H401.515789c-51.2 0-91.621053 40.421053-91.621052 91.621052v471.578948c0 13.473684 10.778947 24.252632 24.252631 24.252631s24.252632-10.778947 24.252632-24.252631V474.273684c0-24.252632 18.863158-43.115789 43.115789-43.115789h315.284211c13.473684 0 24.252632-10.778947 24.252632-24.252632s-10.778947-24.252632-24.252632-24.252631z" fill="#101010" p-id="1143"></path><path d="M697.936842 625.178947V619.789474c0-2.694737-2.694737-2.694737-2.694737-5.389474 0 0 0-2.694737-2.694737-2.694737v-2.694737L592.842105 522.778947s-2.694737 0-2.694737-2.694736c-2.694737 0-2.694737-2.694737-5.389473-2.694737h-5.389474-10.778947l-2.694737 2.694737c-2.694737 0-2.694737 2.694737-5.389474 2.694736 0 0 0 2.694737-2.694737 2.694737 0 2.694737-2.694737 2.694737-2.694737 5.389474v137.431579l-107.789473-91.621053c-10.778947-8.084211-24.252632-8.084211-35.031579 2.694737-8.084211 10.778947-8.084211 24.252632 2.694737 35.031579l121.263158 105.094737-126.652632 113.178947c-10.778947 8.084211-10.778947 24.252632-2.694737 35.031579 5.389474 5.389474 10.778947 8.084211 18.863158 8.084211 5.389474 0 10.778947-2.694737 16.168421-5.389474l113.178947-99.705263v134.736842c2.694737 10.778947 10.778947 16.168421 21.557895 16.168421 8.084211 0 13.473684-5.389474 18.863158-10.778947l94.31579-86.231579v-2.694737-2.694737c0-2.694737 2.694737-2.694737 2.694736-5.389474v-2.694737-5.389473-5.389474-5.389474c0-2.694737-2.694737-2.694737-2.694736-5.389473 0 0 0-2.694737-2.694737-2.694737v-2.694737l-80.842106-70.063158 80.842106-72.757895v-2.694736s0-2.694737 2.694737-2.694737c0-2.694737 2.694737-2.694737 2.694736-5.389474v-2.694737-5.389473c5.389474 5.389474 5.389474 5.389474 5.389474 2.694736z m-61.978947 5.389474l-37.726316 32.336842v-67.368421l37.726316 35.031579z m-35.031579 145.51579l37.726316 32.336842-37.726316 32.336842v-64.673684z" fill="#101010" p-id="1144"></path></svg>