<?xml version="1.0" encoding="UTF-8"?>
<svg width="39px" height="34px" viewBox="0 0 39 34" version="1.1" xmlns="http://www.w3.org/2000/svg" xmlns:xlink="http://www.w3.org/1999/xlink">
    <!-- Generator: Sketch 53 (72520) - https://sketchapp.com -->
    <title>icon</title>
    <desc>Created with Sketch.</desc>
    <g id="Page-1" stroke="none" stroke-width="1" fill="none" fill-rule="evenodd" stroke-linecap="round" stroke-linejoin="round">
        <g id="设备详情---部件详情弹窗" transform="translate(-1171.000000, -967.000000)" stroke="#9CA5C1" stroke-width="1.4">
            <g id="零件概览图" transform="translate(1151.000000, 968.000000)">
                <g id="icon" transform="translate(21.000000, 0.000000)">
                    <path d="M22.7494,4.7502 C22.7494,7.0962 20.8474,8.9982 18.4994,8.9982 C16.1534,8.9982 14.2514,7.0962 14.2514,4.7502 C14.2514,2.4022 16.1534,0.5002 18.4994,0.5002 C20.8474,0.5002 22.7494,2.4022 22.7494,4.7502 Z" id="Stroke-1"></path>
                    <path d="M8.9994,27.7404 C8.9994,30.0884 7.0974,31.9904 4.7494,31.9904 C2.4014,31.9904 0.4994,30.0884 0.4994,27.7404 C0.4994,25.3944 2.4014,23.4904 4.7494,23.4904 C7.0974,23.4904 8.9994,25.3944 8.9994,27.7404 Z" id="Stroke-3"></path>
                    <path d="M22.7494,27.7404 C22.7494,30.0884 20.8474,31.9904 18.4994,31.9904 C16.1534,31.9904 14.2514,30.0884 14.2514,27.7404 C14.2514,25.3944 16.1534,23.4904 18.4994,23.4904 C20.8474,23.4904 22.7494,25.3944 22.7494,27.7404 Z" id="Stroke-5"></path>
                    <path d="M36.4994,27.7404 C36.4994,30.0884 34.5974,31.9904 32.2514,31.9904 C29.9034,31.9904 28.0014,30.0884 28.0014,27.7404 C28.0014,25.3944 29.9034,23.4904 32.2514,23.4904 C34.5974,23.4904 36.4994,25.3944 36.4994,27.7404 Z" id="Stroke-7"></path>
                    <path d="M18.4994,8.9982 L18.4994,15.4622" id="Stroke-9"></path>
                    <path d="M8.6262,15.463 L28.3742,15.463" id="Stroke-11"></path>
                    <path d="M4.8744,19.215 C4.8744,17.141 6.5524,15.463 8.6264,15.463" id="Stroke-13"></path>
                    <path d="M32.1262,19.215 C32.1262,17.141 30.4462,15.463 28.3742,15.463" id="Stroke-15"></path>
                    <path d="M32.1262,19.215 L32.1262,23.491" id="Stroke-17"></path>
                    <path d="M4.8744,19.215 L4.8744,23.491" id="Stroke-19"></path>
                    <path d="M18.4994,15.463 L18.4994,23.491" id="Stroke-21"></path>
                </g>
            </g>
        </g>
    </g>
</svg>