<?xml version="1.0" standalone="no"?><!DOCTYPE svg PUBLIC "-//W3C//DTD SVG 1.1//EN" "http://www.w3.org/Graphics/SVG/1.1/DTD/svg11.dtd"><svg t="1583512843017" class="icon" viewBox="0 0 1024 1024" version="1.1" xmlns="http://www.w3.org/2000/svg" p-id="3261" xmlns:xlink="http://www.w3.org/1999/xlink" width="200" height="200"><defs><style type="text/css"></style></defs><path d="M388.042105 264.084211c-16.168421 0-29.642105 13.473684-29.642105 29.642105v88.926316c0 16.168421 13.473684 29.642105 29.642105 29.642105h247.91579c16.168421 0 29.642105-13.473684 29.642105-29.642105v-88.926316c0-16.168421-13.473684-29.642105-29.642105-29.642105h-247.91579z m239.831579 107.789473h-231.747368v-70.063158h231.747368v70.063158z" p-id="3262"></path><path d="M732.968421 91.621053h-115.873684V61.978947c0-13.473684-10.778947-26.947368-26.947369-26.947368H431.157895c-13.473684 0-26.947368 10.778947-26.947369 26.947368v29.642106h-115.873684c-32.336842 0-56.589474 24.252632-56.589474 56.589473v786.863158c0 32.336842 24.252632 56.589474 56.589474 56.589474h441.936842c32.336842 0 56.589474-24.252632 56.589474-56.589474V145.515789c2.694737-29.642105-24.252632-53.894737-53.894737-53.894736z m-37.726316 385.347368v72.757895H328.757895v-72.757895c2.694737-202.105263 18.863158-312.589474 26.947368-350.315789h312.589474c8.084211 37.726316 24.252632 148.210526 26.947368 350.315789z m-107.789473 110.484211v10.778947h-150.905264v-10.778947h150.905264z m107.789473 0v10.778947h-67.368421v-10.778947h67.368421z m-258.694737 296.421052v-13.473684h150.905264v13.473684h-150.905264z m-86.231579 0c0-5.389474 0-8.084211-2.694736-13.473684h51.2v13.473684H350.315789z m237.136843-234.442105h-150.905264v-10.778947h150.905264v10.778947z m37.726315-13.473684h67.368421v10.778947h-67.368421v-10.778947z m-226.357894 13.473684h-67.368421v-10.778947h67.368421v10.778947z m188.631579 118.568421v13.473684h-150.905264v-13.473684h150.905264z m0 64.673684h-150.905264v-13.473684h150.905264v13.473684z m37.726315-13.473684h56.589474v13.473684h-53.894737v-13.473684z m-282.947368 0h56.589474v13.473684h-53.894737c0-2.694737 0-8.084211-2.694737-13.473684z m56.589474-37.726316h-59.284211v-13.473684h59.284211v13.473684z m226.357894 88.926316h51.2c0 5.389474 0 8.084211-2.694736 13.473684h-48.505264v-13.473684z m59.284211-88.926316h-59.284211v-13.473684h59.284211v13.473684z m-347.621053-51.2c0-13.473684-2.694737-29.642105-2.694737-43.115789h355.705264c0 16.168421-2.694737 29.642105-2.694737 43.115789h-350.31579z m61.978948-132.042105h-67.368421v-10.778947h70.063157v10.778947z m-45.810527 323.368421h315.284211c-2.694737 10.778947-2.694737 21.557895-2.694737 29.642105H358.4c-2.694737-8.084211-2.694737-16.168421-5.389474-29.642105z m91.621053-848.842105h134.736842v18.863158h-134.736842v-18.863158z m-172.463158 859.621052V145.515789c0-10.778947 8.084211-18.863158 18.863158-18.863157h26.947368c-8.084211 43.115789-24.252632 153.6-26.947368 347.621052-2.694737 210.189474 18.863158 409.6 26.947368 474.273684h-26.947368c-10.778947 2.694737-18.863158-5.389474-18.863158-16.168421z m479.663158 0c0 10.778947-8.084211 18.863158-18.863158 18.863158h-26.947368c8.084211-64.673684 29.642105-264.084211 26.947368-474.273684-2.694737-194.021053-18.863158-304.505263-26.947368-347.621053h26.947368c10.778947 0 18.863158 8.084211 18.863158 18.863158v784.168421z" p-id="3263"></path><path d="M398.821053 212.884211h26.947368c10.778947 0 18.863158-8.084211 18.863158-18.863158s-8.084211-18.863158-18.863158-18.863158h-26.947368c-10.778947 0-18.863158 8.084211-18.863158 18.863158s8.084211 18.863158 18.863158 18.863158zM458.105263 194.021053c0 10.778947 8.084211 18.863158 18.863158 18.863158h148.210526c10.778947 0 18.863158-8.084211 18.863158-18.863158s-8.084211-18.863158-18.863158-18.863158h-148.210526c-10.778947 0-18.863158 8.084211-18.863158 18.863158z" p-id="3264"></path></svg>