<?xml version="1.0" standalone="no"?><!DOCTYPE svg PUBLIC "-//W3C//DTD SVG 1.1//EN" "http://www.w3.org/Graphics/SVG/1.1/DTD/svg11.dtd"><svg t="1583512918355" class="icon" viewBox="0 0 1024 1024" version="1.1" xmlns="http://www.w3.org/2000/svg" p-id="5750" xmlns:xlink="http://www.w3.org/1999/xlink" width="200" height="200"><defs><style type="text/css"></style></defs><path d="M792.252632 48.505263H466.189474l-18.863158-10.778947c-2.694737-2.694737-5.389474-2.694737-8.084211-2.694737H269.473684c-16.168421 0-26.947368 13.473684-26.947368 29.642105v61.978948c0 13.473684 10.778947 26.947368 24.252631 26.947368V188.631579H234.442105c-26.947368 0-48.505263 21.557895-48.505263 45.810526V943.157895c0 24.252632 21.557895 45.810526 48.505263 45.810526h450.021053c26.947368 0 48.505263-21.557895 48.505263-45.810526V234.442105c0-24.252632-21.557895-45.810526-48.505263-45.810526H355.705263V153.6h83.536842c2.694737 0 5.389474 0 8.084211-2.694737l18.863158-8.08421h326.063158c26.947368 0 48.505263-21.557895 48.505263-48.505264s-21.557895-45.810526-48.505263-45.810526z m-97.010527 185.936842V943.157895c0 2.694737-5.389474 8.084211-10.778947 8.08421H234.442105c-5.389474 0-10.778947-5.389474-10.778947-8.08421V234.442105c0-2.694737 5.389474-8.084211 10.778947-8.08421h450.021053c5.389474 0 10.778947 5.389474 10.778947 8.08421zM317.978947 188.631579h-13.473684V153.6h13.473684V188.631579z m474.273685-83.536842H460.8c-2.694737 0-5.389474 0-8.084211 2.694737l-18.863157 8.08421h-153.6V72.757895h153.6l18.863157 10.778947h336.842106c5.389474 0 10.778947 5.389474 10.778947 10.778947s-2.694737 10.778947-8.08421 10.778948z" fill="#101010" p-id="5751"></path><path d="M269.473684 247.915789c-10.778947 0-18.863158 8.084211-18.863158 18.863158v64.673685c0 10.778947 8.084211 18.863158 18.863158 18.863157h64.673684c10.778947 0 18.863158-8.084211 18.863158-18.863157V266.778947c0-10.778947-8.084211-18.863158-18.863158-18.863158H269.473684z m43.11579 61.978948h-26.947369v-26.947369h26.947369v26.947369zM425.768421 347.621053h64.673684c10.778947 0 18.863158-8.084211 18.863158-18.863158V266.778947c0-10.778947-8.084211-18.863158-18.863158-18.863158h-64.673684c-10.778947 0-18.863158 8.084211-18.863158 18.863158v64.673685c0 8.084211 8.084211 16.168421 18.863158 16.168421z m18.863158-61.978948h26.947368v26.947369h-26.947368v-26.947369zM584.757895 347.621053h64.673684c10.778947 0 18.863158-8.084211 18.863158-18.863158V266.778947c0-10.778947-8.084211-18.863158-18.863158-18.863158h-64.673684c-10.778947 0-18.863158 8.084211-18.863158 18.863158v64.673685c0 8.084211 8.084211 16.168421 18.863158 16.168421z m18.863158-61.978948h26.947368v26.947369h-26.947368v-26.947369zM342.231579 590.147368v202.105264c0 10.778947 8.084211 18.863158 18.863158 18.863157h202.105263c10.778947 0 18.863158-8.084211 18.863158-18.863157v-202.105264c0-10.778947-8.084211-18.863158-18.863158-18.863157h-202.105263c-10.778947 0-18.863158 8.084211-18.863158 18.863157z m37.726316 18.863158h164.378947v164.378948h-164.378947v-164.378948z" fill="#101010" p-id="5752"></path></svg>