<?xml version="1.0" standalone="no"?><!DOCTYPE svg PUBLIC "-//W3C//DTD SVG 1.1//EN" "http://www.w3.org/Graphics/SVG/1.1/DTD/svg11.dtd"><svg t="1583512874598" class="icon" viewBox="0 0 1024 1024" version="1.1" xmlns="http://www.w3.org/2000/svg" p-id="4261" xmlns:xlink="http://www.w3.org/1999/xlink" width="200" height="200"><defs><style type="text/css"></style></defs><path d="M450.021053 482.357895c-8.084211 5.389474-10.778947 18.863158-5.389474 26.947368 2.694737 5.389474 10.778947 8.084211 16.168421 8.084211 2.694737 0 8.084211 0 10.778947-2.694737 26.947368-16.168421 61.978947-16.168421 86.231579 0 8.084211 5.389474 21.557895 2.694737 26.947369-5.389474 5.389474-8.084211 2.694737-21.557895-5.389474-26.947368-37.726316-24.252632-88.926316-24.252632-129.347368 0zM646.736842 420.378947c5.389474-8.084211 2.694737-21.557895-5.389474-26.947368-75.452632-51.2-177.852632-51.2-250.610526 0-8.084211 5.389474-10.778947 18.863158-5.389474 26.947368 2.694737 5.389474 10.778947 8.084211 16.168421 8.084211 2.694737 0 8.084211 0 10.778948-2.694737 61.978947-40.421053 148.210526-40.421053 207.494737 0 8.084211 5.389474 21.557895 2.694737 26.947368-5.389474z" p-id="4262"></path><path d="M344.926316 342.231579c2.694737 0 8.084211 0 10.778947-2.694737 48.505263-32.336842 105.094737-48.505263 161.684211-48.505263 59.284211 0 113.178947 16.168421 161.68421 48.505263 8.084211 5.389474 21.557895 2.694737 26.947369-5.389474 5.389474-8.084211 2.694737-21.557895-5.389474-26.947368-53.894737-37.726316-118.568421-56.589474-183.242105-56.589474-64.673684 0-129.347368 18.863158-183.242106 56.589474-8.084211 5.389474-10.778947 18.863158-5.389473 26.947368 2.694737 5.389474 8.084211 8.084211 16.168421 8.084211z" p-id="4263"></path><path d="M956.631579 549.726316h-61.978947V196.715789c0-29.642105-24.252632-51.2-51.2-51.2s-51.2 24.252632-51.2 51.2v355.705264H237.136842V196.715789c0-29.642105-24.252632-51.2-51.2-51.2-29.642105 0-51.2 21.557895-51.2 51.2v355.705264H67.368421c-18.863158 0-32.336842 13.473684-32.336842 32.336842v210.189473c0 18.863158 13.473684 32.336842 32.336842 32.336843h80.842105l13.473685 26.947368c5.389474 8.084211 13.473684 26.947368 35.031578 26.947368H242.526316c21.557895 0 29.642105-18.863158 35.031579-26.947368l13.473684-24.252632h455.410526l13.473684 26.947369c5.389474 8.084211 13.473684 26.947368 35.031579 26.947368h45.810527c21.557895 0 29.642105-18.863158 35.031579-26.947368l13.473684-24.252632h70.063158c18.863158 0 32.336842-13.473684 32.336842-32.336842v-210.189474c-2.694737-24.252632-16.168421-40.421053-35.031579-40.421052zM829.978947 196.715789c0-8.084211 5.389474-13.473684 13.473685-13.473684s13.473684 5.389474 13.473684 13.473684v355.705264h-26.947369V196.715789z m-657.515789 0c0-8.084211 5.389474-13.473684 13.473684-13.473684s13.473684 5.389474 13.473684 13.473684v355.705264h-26.947368V196.715789zM242.526316 835.368421c0 2.694737-2.694737 5.389474-2.694737 8.084211H196.715789c0-2.694737-2.694737-2.694737-2.694736-5.389474l-5.389474-10.778947h59.28421L242.526316 835.368421z m598.231579 0c0 2.694737-2.694737 5.389474-2.694737 8.084211h-43.11579c0-2.694737-2.694737-2.694737-2.694736-5.389474l-5.389474-10.778947h59.28421l-5.389473 8.08421z m110.48421-45.810526H72.757895v-199.410527H951.242105v199.410527z" p-id="4264"></path><path d="M188.631579 638.652632c-26.947368 0-48.505263 21.557895-48.505263 48.505263S161.684211 735.663158 188.631579 735.663158s48.505263-21.557895 48.505263-48.505263S215.578947 638.652632 188.631579 638.652632zM188.631579 700.631579c-5.389474 0-10.778947-5.389474-10.778947-10.778947s5.389474-10.778947 10.778947-10.778948 10.778947 5.389474 10.778947 10.778948-5.389474 10.778947-10.778947 10.778947zM353.010526 638.652632c-26.947368 0-48.505263 21.557895-48.505263 48.505263s21.557895 48.505263 48.505263 48.505263 48.505263-21.557895 48.505263-48.505263-21.557895-48.505263-48.505263-48.505263z m0 61.978947c-5.389474 0-10.778947-5.389474-10.778947-10.778947s5.389474-10.778947 10.778947-10.778948 10.778947 5.389474 10.778948 10.778948-5.389474 10.778947-10.778948 10.778947zM514.694737 638.652632c-26.947368 0-48.505263 21.557895-48.505263 48.505263s21.557895 48.505263 48.505263 48.505263 48.505263-21.557895 48.505263-48.505263c2.694737-26.947368-21.557895-48.505263-48.505263-48.505263z m0 61.978947c-5.389474 0-10.778947-5.389474-10.778948-10.778947s5.389474-10.778947 10.778948-10.778948 10.778947 5.389474 10.778947 10.778948-2.694737 10.778947-10.778947 10.778947zM679.073684 638.652632c-26.947368 0-48.505263 21.557895-48.505263 48.505263s21.557895 48.505263 48.505263 48.505263 48.505263-21.557895 48.505263-48.505263-21.557895-48.505263-48.505263-48.505263z m0 61.978947c-5.389474 0-10.778947-5.389474-10.778947-10.778947s5.389474-10.778947 10.778947-10.778948 10.778947 5.389474 10.778948 10.778948-5.389474 10.778947-10.778948 10.778947zM794.947368 687.157895c0 26.947368 21.557895 48.505263 48.505264 48.505263s48.505263-21.557895 48.505263-48.505263-21.557895-48.505263-48.505263-48.505263-48.505263 21.557895-48.505264 48.505263z m59.284211 0c0 5.389474-5.389474 10.778947-10.778947 10.778947s-10.778947-5.389474-10.778948-10.778947 5.389474-10.778947 10.778948-10.778948 10.778947 5.389474 10.778947 10.778948z" p-id="4265"></path></svg>