<?xml version="1.0" standalone="no"?><!DOCTYPE svg PUBLIC "-//W3C//DTD SVG 1.1//EN" "http://www.w3.org/Graphics/SVG/1.1/DTD/svg11.dtd"><svg t="1583512891782" class="icon" viewBox="0 0 1024 1024" version="1.1" xmlns="http://www.w3.org/2000/svg" p-id="4882" xmlns:xlink="http://www.w3.org/1999/xlink" width="200" height="200"><defs><style type="text/css"></style></defs><path d="M873.094737 404.210526h-18.863158V97.010526c0-35.031579-26.947368-61.978947-61.978947-61.978947H231.747368c-35.031579 0-61.978947 26.947368-61.978947 61.978947V404.210526h-18.863158c-10.778947 0-18.863158 8.084211-18.863158 18.863158v503.91579c0 35.031579 26.947368 61.978947 61.978948 61.978947h635.957894c35.031579 0 61.978947-26.947368 61.978948-61.978947V423.073684c0-8.084211-10.778947-18.863158-18.863158-18.863158zM210.189474 97.010526c0-13.473684 10.778947-24.252632 24.252631-24.252631h557.810527c13.473684 0 24.252632 10.778947 24.252631 24.252631V404.210526H808.421053c-37.726316 0-88.926316-8.084211-107.789474-88.926315-24.252632-105.094737-88.926316-158.989474-188.631579-158.989474s-164.378947 53.894737-188.631579 158.989474c-21.557895 78.147368-72.757895 88.926316-107.789474 88.926315h-5.389473V97.010526z m619.789473 854.231579H194.021053c-13.473684 0-24.252632-10.778947-24.252632-24.252631v-485.052632h40.421053c75.452632 0 123.957895-40.421053 145.515789-115.873684 21.557895-88.926316 70.063158-129.347368 150.905263-129.347369 83.536842 0 132.042105 40.421053 150.905263 129.347369 21.557895 78.147368 70.063158 115.873684 145.51579 115.873684h45.810526v485.052632c5.389474 13.473684-5.389474 24.252632-18.863158 24.252631z" fill="#101010" p-id="4883"></path><path d="M509.305263 644.042105c-56.589474 0-105.094737 45.810526-105.094737 105.094737s45.810526 105.094737 105.094737 105.094737 105.094737-45.810526 105.094737-105.094737-48.505263-105.094737-105.094737-105.094737z m0 169.768421c-37.726316 0-67.368421-29.642105-67.368421-67.368421s29.642105-67.368421 67.368421-67.368421 67.368421 29.642105 67.368421 67.368421c-2.694737 37.726316-32.336842 67.368421-67.368421 67.368421z" fill="#101010" p-id="4884"></path></svg>