<?xml version="1.0" standalone="no"?><!DOCTYPE svg PUBLIC "-//W3C//DTD SVG 1.1//EN" "http://www.w3.org/Graphics/SVG/1.1/DTD/svg11.dtd"><svg t="1583512885544" class="icon" viewBox="0 0 1024 1024" version="1.1" xmlns="http://www.w3.org/2000/svg" p-id="4636" xmlns:xlink="http://www.w3.org/1999/xlink" width="200" height="200"><defs><style type="text/css"></style></defs><path d="M929.684211 455.410526h-37.726316L835.368421 379.957895V323.368421c0-10.778947-8.084211-18.863158-18.863158-18.863158h-37.726316v-29.642105c8.084211-2.694737 16.168421-8.084211 21.557895-10.778947 24.252632-16.168421 26.947368-32.336842 29.642105-37.726316v-2.694737c0-8.084211-2.694737-13.473684-5.389473-18.863158-5.389474-8.084211-16.168421-10.778947-26.947369-10.778947h-132.042105c-10.778947 0-18.863158 5.389474-26.947368 10.778947-5.389474 5.389474-5.389474 13.473684-5.389474 18.863158v2.694737c0 5.389474 2.694737 21.557895 29.642105 37.726316l21.557895 10.778947v29.642105H646.736842c-10.778947 0-18.863158 8.084211-18.863158 18.863158v43.11579H619.789474V323.368421c0-10.778947-8.084211-18.863158-18.863158-18.863158h-37.726316v-29.642105c8.084211-2.694737 16.168421-8.084211 21.557895-10.778947 24.252632-16.168421 26.947368-32.336842 29.642105-37.726316v-2.694737c0-8.084211-2.694737-13.473684-5.389474-18.863158-5.389474-8.084211-16.168421-10.778947-26.947368-10.778947h-132.042105c-10.778947 0-18.863158 5.389474-26.947369 10.778947-5.389474 5.389474-5.389474 13.473684-5.389473 18.863158v5.389474c0 5.389474 5.389474 21.557895 26.947368 35.031579l21.557895 10.778947v29.642105h-37.726316c-10.778947 0-18.863158 8.084211-18.863158 18.863158v43.11579h-8.084211V323.368421c0-10.778947-8.084211-18.863158-18.863157-18.863158h-37.726316v-29.642105c8.084211-2.694737 16.168421-8.084211 21.557895-10.778947 21.557895-13.473684 26.947368-29.642105 26.947368-35.031579v-2.694737-2.694737c0-8.084211-2.694737-13.473684-5.389474-18.863158-5.389474-8.084211-16.168421-10.778947-26.947368-10.778947h-134.736842c-10.778947 0-18.863158 5.389474-26.947369 10.778947-2.694737 5.389474-5.389474 13.473684-5.389473 18.863158v5.389474c0 5.389474 5.389474 21.557895 26.947368 35.031579l21.557895 10.778947v29.642105H207.494737c-10.778947 0-18.863158 10.778947-18.863158 18.863158v56.589474l-61.978947 75.452631H94.315789c-32.336842 0-59.284211 26.947368-59.28421 59.284211v247.915789c0 37.726316 29.642105 67.368421 67.368421 67.368421h816.505263c37.726316 0 67.368421-29.642105 67.368421-67.368421v-247.915789c2.694737-32.336842-24.252632-59.284211-56.589473-59.284211z m-253.305264-223.663158h107.789474s-2.694737 2.694737-5.389474 2.694737c-5.389474 2.694737-16.168421 8.084211-24.252631 10.778948h-51.2c-8.084211-2.694737-18.863158-8.084211-24.252632-13.473685h-2.694737z m43.11579 51.2h21.557895v21.557895h-21.557895v-21.557895z m-56.589474 59.284211h134.736842v24.252632h-134.736842v-24.252632zM458.105263 231.747368h107.789474s-2.694737 2.694737-5.389474 2.694737c-5.389474 5.389474-18.863158 10.778947-24.252631 13.473684H485.052632c-8.084211-2.694737-18.863158-8.084211-24.252632-13.473684 0-2.694737-2.694737-2.694737-2.694737-2.694737z m43.11579 51.2h21.557894v21.557895h-21.557894v-21.557895z m-56.589474 59.284211h134.736842v24.252632h-134.736842v-24.252632zM237.136842 231.747368h107.789474s-2.694737 2.694737-5.389474 2.694737c-5.389474 5.389474-18.863158 10.778947-24.252631 13.473684H266.778947c-5.389474-5.389474-18.863158-10.778947-24.252631-13.473684-2.694737-2.694737-2.694737-2.694737-5.389474-2.694737z m45.810526 51.2h21.557895v21.557895h-21.557895v-21.557895z m-56.589473 59.284211h134.736842v24.252632h-134.736842v-24.252632z m724.88421 420.378947c0 16.168421-13.473684 29.642105-29.642105 29.642106H102.4c-16.168421 0-29.642105-13.473684-29.642105-29.642106v-247.915789c0-13.473684 10.778947-21.557895 21.557894-21.557895H134.736842c5.389474 0 10.778947-2.694737 13.473684-8.08421L215.578947 406.905263h592.842106l59.28421 78.147369c2.694737 5.389474 8.084211 8.084211 16.168421 8.08421h45.810527c10.778947 0 21.557895 10.778947 21.557894 21.557895v247.915789z" fill="#101010" p-id="4637"></path></svg>