<?xml version="1.0" standalone="no"?><!DOCTYPE svg PUBLIC "-//W3C//DTD SVG 1.1//EN" "http://www.w3.org/Graphics/SVG/1.1/DTD/svg11.dtd"><svg t="1583512813688" class="icon" viewBox="0 0 1024 1024" version="1.1" xmlns="http://www.w3.org/2000/svg" p-id="2514" xmlns:xlink="http://www.w3.org/1999/xlink" width="200" height="200"><defs><style type="text/css"></style></defs><path d="M716.8 35.031579H307.2c-29.642105 0-53.894737 21.557895-53.894737 48.505263v800.336842c0 26.947368 24.252632 48.505263 53.894737 48.505263h5.389474l29.642105 48.505264c0 2.694737 2.694737 2.694737 5.389474 5.389473h2.694736c2.694737 0 5.389474 2.694737 8.084211 2.694737h53.894737c2.694737 0 5.389474 0 8.08421-2.694737h2.694737c2.694737 0 2.694737-2.694737 5.389474-5.389473l29.642105-48.505264h107.789474l29.642105 48.505264c0 2.694737 2.694737 2.694737 5.389474 5.389473h2.694737c2.694737 0 5.389474 2.694737 8.08421 2.694737h53.894737c2.694737 0 5.389474 0 8.084211-2.694737h2.694736c2.694737 0 2.694737-2.694737 5.389474-5.389473l29.642105-48.505264h5.389474c29.642105 0 53.894737-21.557895 53.894737-48.505263V83.536842c0-26.947368-24.252632-48.505263-53.894737-48.505263z m-315.284211 916.210526h-32.336842l-10.778947-18.863158h56.589474l-13.473685 18.863158z m253.305264 0h-32.336842l-10.778948-18.863158h56.589474l-13.473684 18.863158z m78.147368-67.368421c0 5.389474-8.084211 10.778947-16.168421 10.778948H307.2c-8.084211 0-16.168421-5.389474-16.168421-10.778948V83.536842c0-5.389474 8.084211-10.778947 16.168421-10.778947h409.6c8.084211 0 16.168421 5.389474 16.168421 10.778947v800.336842z" fill="#101010" p-id="2515"></path><path d="M681.768421 99.705263H342.231579c-13.473684 0-26.947368 10.778947-26.947368 26.947369v722.189473c0 13.473684 10.778947 26.947368 26.947368 26.947369h342.231579c13.473684 0 26.947368-10.778947 26.947368-26.947369V123.957895c-2.694737-13.473684-13.473684-24.252632-29.642105-24.252632zM670.989474 835.368421H353.010526V134.736842h317.978948v700.631579z" fill="#101010" p-id="2516"></path></svg>