<?xml version="1.0" standalone="no"?><!DOCTYPE svg PUBLIC "-//W3C//DTD SVG 1.1//EN" "http://www.w3.org/Graphics/SVG/1.1/DTD/svg11.dtd"><svg t="1583512940387" class="icon" viewBox="0 0 1024 1024" version="1.1" xmlns="http://www.w3.org/2000/svg" p-id="6369" xmlns:xlink="http://www.w3.org/1999/xlink" width="200" height="200"><defs><style type="text/css"></style></defs><path d="M512 630.568421c164.378947 0 299.115789-134.736842 299.115789-299.115789 0-150.905263-113.178947-277.557895-261.389473-296.421053h-2.694737-2.694737s-2.694737 0-2.694737 2.694737c0 0-2.694737 0-2.694737 2.694737l-2.694736 2.694736s0 2.694737-2.694737 2.694737V134.736842s0 2.694737 2.694737 2.694737c0 0 0 2.694737 2.694736 2.694737l2.694737 2.694737 2.694737 2.694736s2.694737 0 2.694737 2.694737h2.694737c70.063158 13.473684 121.263158 78.147368 121.263158 150.905263 0 83.536842-70.063158 153.6-153.6 153.6s-153.6-70.063158-153.6-153.6c0-75.452632 53.894737-140.126316 126.652631-150.905263h2.694737s2.694737 0 2.694737-2.694737c0 0 2.694737 0 2.694737-2.694736l2.694737-2.694737 2.694736-2.694737s0-2.694737 2.694737-2.694737v-2.694737V53.894737v-2.694737-2.694737s0-2.694737-2.694737-2.694737l-2.694736-2.694737s-2.694737 0-2.694737-2.694736l-2.694737-2.694737h-2.694737-2.694737c-153.6 16.168421-269.473684 142.821053-269.473684 296.421052-8.084211 164.378947 126.652632 296.421053 291.031579 296.421053zM463.494737 75.452632v40.421052c-83.536842 21.557895-142.821053 97.010526-142.821053 185.936842 0 105.094737 86.231579 191.326316 191.326316 191.326316 105.094737 0 191.326316-86.231579 191.326316-191.326316C703.326316 215.578947 646.736842 142.821053 565.894737 118.568421V78.147368c118.568421 24.252632 207.494737 132.042105 207.494737 256 0 142.821053-115.873684 261.389474-261.389474 261.389474s-261.389474-115.873684-261.389474-261.389474c0-129.347368 91.621053-237.136842 212.884211-258.694736z" fill="#101010" p-id="6370"></path><path d="M751.831579 573.978947c0-2.694737-2.694737-5.389474-5.389474-5.389473h-2.694737c-2.694737 0-2.694737-2.694737-5.389473-2.694737h-5.389474-2.694737c-2.694737 0-5.389474 0-8.08421 2.694737-2.694737 0-5.389474 2.694737-5.389474 5.389473-51.2 51.2-123.957895 80.842105-207.494737 80.842106-83.536842 0-156.294737-26.947368-207.494737-80.842106l-5.389473-5.389473c-2.694737 0-5.389474-2.694737-8.084211-2.694737H280.252632c-2.694737 0-2.694737 2.694737-5.389474 2.694737l-5.389474 5.389473c0 2.694737-2.694737 5.389474-2.694737 8.084211v291.031579c0 35.031579 26.947368 56.589474 40.421053 67.368421l2.694737 2.694737 21.557895 13.473684c16.168421 10.778947 35.031579 18.863158 53.894736 21.557895 48.505263 8.084211 86.231579 13.473684 121.263158 13.473684 35.031579 0 72.757895-5.389474 121.263158-13.473684 18.863158-2.694737 37.726316-10.778947 53.894737-21.557895l21.557895-13.473684 2.694737-2.694737c16.168421-13.473684 40.421053-32.336842 40.421052-67.368421V579.368421c5.389474 0 5.389474-2.694737 5.389474-5.389474z m-61.978947 336.842106l-21.557895 13.473684c-13.473684 8.084211-26.947368 13.473684-40.421053 16.168421-45.810526 8.084211-80.842105 13.473684-113.178947 13.473684-32.336842 0-70.063158-5.389474-113.178948-13.473684-13.473684-2.694737-29.642105-8.084211-40.421052-16.168421l-18.863158-13.473684c-13.473684-10.778947-26.947368-21.557895-26.947368-37.726316v-250.610526c53.894737 40.421053 123.957895 61.978947 202.105263 61.978947 78.147368 0 148.210526-21.557895 202.105263-61.978947v250.610526c-5.389474 16.168421-18.863158 26.947368-29.642105 37.726316z" fill="#101010" p-id="6371"></path><path d="M646.736842 754.526316h-264.08421c-21.557895 0-40.421053 18.863158-40.421053 40.421052v48.505264c0 21.557895 18.863158 40.421053 40.421053 40.421052H646.736842c21.557895 0 40.421053-18.863158 40.421053-40.421052v-48.505264c0-21.557895-18.863158-40.421053-40.421053-40.421052z m2.694737 88.926316h-266.778947l2.694736-51.2 266.778948 2.694736v48.505264z" fill="#101010" p-id="6372"></path></svg>