<?xml version="1.0" standalone="no"?><!DOCTYPE svg PUBLIC "-//W3C//DTD SVG 1.1//EN" "http://www.w3.org/Graphics/SVG/1.1/DTD/svg11.dtd"><svg t="1583512931634" class="icon" viewBox="0 0 1024 1024" version="1.1" xmlns="http://www.w3.org/2000/svg" p-id="6121" xmlns:xlink="http://www.w3.org/1999/xlink" width="200" height="200"><defs><style type="text/css"></style></defs><path d="M334.147368 307.2c-5.389474 8.084211-5.389474 18.863158 2.694737 26.947368 2.694737 2.694737 8.084211 5.389474 10.778948 5.389474 5.389474 0 10.778947-2.694737 13.473684-8.08421 61.978947-75.452632 35.031579-123.957895 13.473684-164.378948-18.863158-35.031579-32.336842-56.589474 5.389474-102.4 5.389474-8.084211 5.389474-18.863158-2.694737-26.947368-8.084211-5.389474-18.863158-5.389474-26.947369 2.694737-51.2 64.673684-26.947368 107.789474-8.08421 142.821052 24.252632 37.726316 37.726316 67.368421-8.084211 123.957895zM485.052632 307.2c-5.389474 8.084211-5.389474 18.863158 2.694736 26.947368 2.694737 2.694737 8.084211 5.389474 10.778948 5.389474 5.389474 0 10.778947-2.694737 13.473684-8.08421 61.978947-75.452632 35.031579-123.957895 13.473684-164.378948-18.863158-35.031579-32.336842-56.589474 5.389474-102.4 5.389474-8.084211 5.389474-18.863158-2.694737-26.947368-8.084211-5.389474-18.863158-5.389474-26.947368 2.694737-51.2 64.673684-26.947368 107.789474-8.084211 142.821052 21.557895 37.726316 37.726316 67.368421-8.08421 123.957895zM633.263158 307.2c-5.389474 8.084211-5.389474 18.863158 2.694737 26.947368 2.694737 2.694737 8.084211 5.389474 10.778947 5.389474 5.389474 0 10.778947-2.694737 13.473684-8.08421 61.978947-75.452632 35.031579-123.957895 13.473685-164.378948-18.863158-35.031579-32.336842-56.589474 5.389473-102.4 5.389474-8.084211 5.389474-18.863158-2.694737-26.947368-8.084211-5.389474-18.863158-5.389474-26.947368 2.694737-51.2 64.673684-26.947368 107.789474-8.084211 142.821052 24.252632 37.726316 37.726316 67.368421-8.08421 123.957895zM940.463158 781.473684h-56.589474l-97.010526-323.368421c-16.168421-45.810526-43.115789-61.978947-78.147369-64.673684H336.842105c-48.505263 0-78.147368 10.778947-99.705263 67.368421L142.821053 781.473684H83.536842c-26.947368 0-48.505263 21.557895-48.505263 48.505263v107.789474c0 26.947368 21.557895 48.505263 48.505263 48.505263h854.231579c26.947368 0 48.505263-21.557895 48.505263-48.505263v-107.789474c2.694737-24.252632-18.863158-48.505263-45.810526-48.505263z m-188.631579-309.894737l56.589474 188.631579h-118.568421V431.157895c35.031579 0 48.505263 5.389474 61.978947 40.421052z m-220.968421 188.631579V431.157895h121.263158v229.052631h-121.263158z m-158.989474 0V431.157895h121.263158v229.052631h-121.263158z m-37.726316-231.747368v229.052631H218.273684l56.589474-188.631578c10.778947-32.336842 24.252632-37.726316 59.28421-40.421053z m-126.652631 269.473684h611.705263l24.252632 86.231579H180.547368l26.947369-86.231579z m743.747368 242.526316c0 5.389474-5.389474 10.778947-10.778947 10.778947H83.536842c-5.389474 0-10.778947-5.389474-10.778947-10.778947v-107.789474c0-5.389474 5.389474-10.778947 10.778947-10.778947h854.231579c5.389474 0 10.778947 5.389474 10.778947 10.778947v107.789474z" fill="#101010" p-id="6122"></path></svg>