<?xml version="1.0" standalone="no"?><!DOCTYPE svg PUBLIC "-//W3C//DTD SVG 1.1//EN" "http://www.w3.org/Graphics/SVG/1.1/DTD/svg11.dtd"><svg t="1583512947466" class="icon" viewBox="0 0 1024 1024" version="1.1" xmlns="http://www.w3.org/2000/svg" p-id="6619" xmlns:xlink="http://www.w3.org/1999/xlink" width="200" height="200"><defs><style type="text/css"></style></defs><path d="M778.778947 299.115789h-169.768421V105.094737c0-37.726316-32.336842-70.063158-70.063158-70.063158H231.747368C194.021053 35.031579 161.684211 67.368421 161.684211 105.094737v813.810526c0 37.726316 32.336842 70.063158 70.063157 70.063158H538.947368c37.726316 0 70.063158-32.336842 70.063158-70.063158V463.494737h169.768421c45.810526 0 83.536842-37.726316 83.536842-83.536842 0-43.115789-37.726316-80.842105-83.536842-80.842106z m-207.494736 619.789474c0 18.863158-16.168421 32.336842-32.336843 32.336842H231.747368c-18.863158 0-32.336842-13.473684-32.336842-32.336842V105.094737c0-18.863158 13.473684-32.336842 32.336842-32.336842H538.947368c18.863158 0 32.336842 16.168421 32.336843 32.336842v194.021052h-110.484211c-45.810526 0-83.536842 37.726316-83.536842 83.536843 0 45.810526 37.726316 83.536842 83.536842 83.536842h110.484211v452.715789z m207.494736-493.136842H460.8c-24.252632 0-45.810526-18.863158-45.810526-45.810526 0-24.252632 18.863158-45.810526 45.810526-45.810527h317.978947c24.252632 0 45.810526 18.863158 45.810527 45.810527s-21.557895 45.810526-45.810527 45.810526z" fill="#101010" p-id="6620"></path><path d="M355.705263 382.652632c0-59.284211 48.505263-110.484211 110.484211-110.484211 8.084211 0 16.168421 0 21.557894 2.694737 10.778947 2.694737 18.863158-5.389474 21.557895-13.473684 2.694737-10.778947-5.389474-18.863158-13.473684-21.557895-10.778947-2.694737-18.863158-2.694737-29.642105-2.694737-80.842105 0-148.210526 64.673684-148.210527 148.210526s67.368421 148.210526 148.210527 148.210527c10.778947 0 21.557895 0 32.336842-2.694737 10.778947-2.694737 16.168421-13.473684 13.473684-21.557895-2.694737-10.778947-13.473684-16.168421-21.557895-13.473684-8.084211 2.694737-16.168421 2.694737-24.252631 2.694737-59.284211-8.084211-110.484211-56.589474-110.484211-115.873684zM385.347368 673.684211c-37.726316 0-67.368421 29.642105-67.368421 67.368421 0 18.863158 8.084211 37.726316 21.557895 48.505263v59.28421c0 24.252632 21.557895 45.810526 45.810526 45.810527s45.810526-21.557895 45.810527-45.810527v-59.28421c13.473684-13.473684 21.557895-29.642105 21.557894-48.505263 0-37.726316-29.642105-67.368421-67.368421-67.368421z m8.084211 177.852631c0 5.389474-2.694737 8.084211-8.084211 8.084211s-8.084211-5.389474-8.08421-8.084211V781.473684v-2.694737-2.694736s0-2.694737-2.694737-2.694737c0 0 0-2.694737-2.694737-2.694737l-2.694737-2.694737c-8.084211-5.389474-13.473684-16.168421-13.473684-24.252632 0-16.168421 13.473684-29.642105 29.642105-29.642105s29.642105 13.473684 29.642106 29.642105c0 10.778947-5.389474 18.863158-13.473685 24.252632l-2.694736 2.694737-2.694737 2.694737s0 2.694737-2.694737 2.694737V851.536842z" fill="#101010" p-id="6621"></path></svg>