<?xml version="1.0" standalone="no"?><!DOCTYPE svg PUBLIC "-//W3C//DTD SVG 1.1//EN" "http://www.w3.org/Graphics/SVG/1.1/DTD/svg11.dtd"><svg t="1583512898746" class="icon" viewBox="0 0 1024 1024" version="1.1" xmlns="http://www.w3.org/2000/svg" p-id="5130" xmlns:xlink="http://www.w3.org/1999/xlink" width="200" height="200"><defs><style type="text/css"></style></defs><path d="M598.231579 363.789474h-172.463158c-10.778947 0-18.863158 8.084211-18.863158 18.863158s8.084211 18.863158 18.863158 18.863157h172.463158c10.778947 0 18.863158-8.084211 18.863158-18.863157s-8.084211-18.863158-18.863158-18.863158zM598.231579 433.852632h-172.463158c-10.778947 0-18.863158 8.084211-18.863158 18.863157s8.084211 18.863158 18.863158 18.863158h172.463158c10.778947 0 18.863158-8.084211 18.863158-18.863158s-8.084211-18.863158-18.863158-18.863157z" fill="#101010" p-id="5131"></path><path d="M794.947368 245.221053h-194.021052V158.989474h53.894737c8.084211 43.115789 45.810526 75.452632 91.621052 75.452631 51.2 0 94.315789-43.115789 94.31579-94.315789s-43.115789-94.315789-94.31579-94.31579c-45.810526 0-83.536842 32.336842-91.621052 75.452632h-53.894737v-26.947369c0-26.947368-21.557895-48.505263-48.505263-48.505263h-107.789474c-26.947368 0-48.505263 21.557895-48.505263 48.505263V242.526316H229.052632c-107.789474 0-194.021053 86.231579-194.021053 194.021052v199.410527c0 102.4 78.147368 183.242105 177.852632 194.021052V862.315789c-16.168421 5.389474-24.252632 16.168421-24.252632 32.336843v45.810526c0 18.863158 16.168421 35.031579 35.031579 35.031579h158.989474c18.863158 0 35.031579-16.168421 35.031579-35.031579v-45.810526c0-16.168421-10.778947-29.642105-26.947369-35.031579v-29.642106h250.610526V862.315789c-13.473684 5.389474-24.252632 16.168421-24.252631 32.336843v45.810526c0 18.863158 16.168421 35.031579 35.031579 35.031579h158.989473c18.863158 0 35.031579-16.168421 35.031579-35.031579v-45.810526c0-16.168421-10.778947-29.642105-26.947368-35.031579v-29.642106c97.010526-10.778947 175.157895-91.621053 175.157895-194.021052v-199.410527c-5.389474-105.094737-91.621053-191.326316-199.410527-191.326315z m-45.810526-158.989474c29.642105 0 56.589474 24.252632 56.589474 56.589474s-24.252632 56.589474-56.589474 56.589473-56.589474-24.252632-56.589474-56.589473 24.252632-56.589474 56.589474-56.589474z m-72.757895 773.389474v-102.4c0-26.947368 21.557895-51.2 51.2-51.2s51.2 21.557895 51.2 51.2v102.4h-102.4z m0-576.673685h99.705264v404.210527c-13.473684-10.778947-32.336842-16.168421-51.2-16.168421s-35.031579 5.389474-51.2 16.168421v-404.210527z m-239.831579-185.936842c0-5.389474 5.389474-10.778947 10.778948-10.778947h107.789473c5.389474 0 10.778947 5.389474 10.778948 10.778947v148.210527h-129.347369V97.010526zM250.610526 757.221053c0-26.947368 21.557895-51.2 51.2-51.2s51.2 21.557895 51.2 51.2v35.031579H250.610526v-35.031579z m99.705263-72.757895c-13.473684-10.778947-32.336842-16.168421-51.2-16.168421s-35.031579 5.389474-51.2 16.168421v-404.210526H350.315789v404.210526zM72.757895 638.652632v-199.410527c0-80.842105 61.978947-145.515789 140.126316-156.294737v509.305264c-78.147368-8.084211-140.126316-75.452632-140.126316-153.6zM377.263158 937.768421H226.357895v-40.421053H377.263158v40.421053z m-26.947369-78.147368H250.610526v-29.642106H350.315789v29.642106z m37.726316-64.673685v-512h250.610527v512h-250.610527z m414.989474 142.821053h-153.6v-40.421053h153.6v40.421053z m148.210526-299.115789c0 80.842105-59.284211 145.515789-137.431579 153.6V282.947368c78.147368 8.084211 137.431579 75.452632 137.431579 153.6v202.105264z" fill="#101010" p-id="5132"></path></svg>