<?xml version="1.0" standalone="no"?><!DOCTYPE svg PUBLIC "-//W3C//DTD SVG 1.1//EN" "http://www.w3.org/Graphics/SVG/1.1/DTD/svg11.dtd"><svg t="1583512856197" class="icon" viewBox="0 0 1024 1024" version="1.1" xmlns="http://www.w3.org/2000/svg" p-id="3639" xmlns:xlink="http://www.w3.org/1999/xlink" width="200" height="200"><defs><style type="text/css"></style></defs><path d="M851.536842 425.768421H172.463158c-75.452632 0-134.736842 59.284211-134.736842 134.736842s59.284211 134.736842 134.736842 134.736842h212.88421L350.315789 873.094737h-8.08421c-32.336842 0-59.284211 26.947368-59.284211 59.28421 0 32.336842 26.947368 59.284211 59.284211 59.284211h334.147368c32.336842 0 59.284211-26.947368 59.284211-59.284211 0-32.336842-26.947368-59.284211-59.284211-59.28421H673.684211l-35.031579-177.852632h210.189473c75.452632 0 134.736842-59.284211 134.736842-134.736842s-56.589474-134.736842-132.042105-134.736842zM700.631579 929.684211c0 10.778947-8.084211 21.557895-21.557895 21.557894H344.926316c-10.778947 0-21.557895-8.084211-21.557895-21.557894s8.084211-21.557895 21.557895-21.557895h334.147368c10.778947 0 21.557895 10.778947 21.557895 21.557895z m-61.978947-59.284211h-247.91579l35.031579-177.852632h180.547368l32.336843 177.852632z m212.88421-212.884211H172.463158c-53.894737 0-97.010526-43.115789-97.010526-97.010526s43.115789-97.010526 97.010526-97.010526h679.073684c53.894737 0 97.010526 43.115789 97.010526 97.010526s-43.115789 97.010526-97.010526 97.010526z" fill="#101010" p-id="3640"></path><path d="M188.631579 495.831579c-35.031579 0-64.673684 29.642105-64.673684 64.673684s29.642105 64.673684 64.673684 64.673684 64.673684-29.642105 64.673684-64.673684-29.642105-64.673684-64.673684-64.673684z m0 91.621053c-13.473684 0-26.947368-10.778947-26.947368-26.947369s10.778947-26.947368 26.947368-26.947368 26.947368 10.778947 26.947368 26.947368-13.473684 26.947368-26.947368 26.947369zM347.621053 495.831579c-35.031579 0-64.673684 29.642105-64.673685 64.673684s29.642105 64.673684 64.673685 64.673684 64.673684-29.642105 64.673684-64.673684-29.642105-64.673684-64.673684-64.673684z m0 91.621053c-13.473684 0-26.947368-10.778947-26.947369-26.947369s10.778947-26.947368 26.947369-26.947368 26.947368 10.778947 26.947368 26.947368-10.778947 26.947368-26.947368 26.947369zM827.284211 495.831579H541.642105c-35.031579 0-64.673684 29.642105-64.673684 64.673684s29.642105 64.673684 64.673684 64.673684h285.642106c35.031579 0 64.673684-29.642105 64.673684-64.673684s-26.947368-64.673684-64.673684-64.673684z m0 91.621053H541.642105c-13.473684 0-26.947368-10.778947-26.947368-26.947369s10.778947-26.947368 26.947368-26.947368h285.642106c13.473684 0 26.947368 10.778947 26.947368 26.947368s-10.778947 26.947368-26.947368 26.947369zM423.073684 797.642105c0 29.642105 24.252632 51.2 51.2 51.2h78.147369c29.642105 0 51.2-24.252632 51.2-51.2s-24.252632-51.2-51.2-51.2h-78.147369c-26.947368 0-51.2 24.252632-51.2 51.2z m53.894737-13.473684h78.147368c8.084211 0 13.473684 5.389474 13.473685 13.473684s-5.389474 13.473684-13.473685 13.473684h-78.147368c-8.084211 0-13.473684-5.389474-13.473684-13.473684-2.694737-5.389474 5.389474-13.473684 13.473684-13.473684zM220.968421 199.410526c5.389474 0 10.778947-2.694737 13.473684-5.389473 70.063158-78.147368 172.463158-121.263158 277.557895-121.263158 105.094737 0 204.8 43.115789 274.863158 121.263158 8.084211 8.084211 18.863158 8.084211 26.947368 0 8.084211-8.084211 8.084211-18.863158 0-26.947369-78.147368-83.536842-188.631579-132.042105-304.505263-132.042105-115.873684 0-226.357895 48.505263-304.505263 134.736842-8.084211 8.084211-5.389474 18.863158 0 26.947368 8.084211 2.694737 10.778947 2.694737 16.168421 2.694737zM668.294737 326.063158c5.389474 8.084211 18.863158 8.084211 26.947368 2.694737 8.084211-5.389474 8.084211-18.863158 2.694737-26.947369C652.126316 247.915789 584.757895 215.578947 512 215.578947c-75.452632 0-142.821053 35.031579-188.631579 91.621053-5.389474 8.084211-5.389474 18.863158 2.694737 26.947368 2.694737 2.694737 8.084211 2.694737 10.778947 2.694737 5.389474 0 10.778947-2.694737 16.168421-8.08421 37.726316-48.505263 97.010526-78.147368 158.989474-78.147369 61.978947 2.694737 118.568421 29.642105 156.294737 75.452632z" fill="#101010" p-id="3641"></path><path d="M512 304.505263c-53.894737 0-102.4 26.947368-129.347368 72.757895-5.389474 8.084211-2.694737 21.557895 5.389473 26.947368 2.694737 2.694737 5.389474 2.694737 10.778948 2.694737s13.473684-2.694737 16.168421-8.08421c18.863158-35.031579 56.589474-53.894737 97.010526-53.894737 37.726316 0 72.757895 18.863158 94.315789 48.505263 5.389474 8.084211 18.863158 10.778947 26.947369 5.389474 8.084211-5.389474 10.778947-18.863158 5.389474-26.947369-29.642105-43.115789-75.452632-67.368421-126.652632-67.368421zM722.189474 266.778947c8.084211 8.084211 18.863158 8.084211 26.947368 2.694737 8.084211-8.084211 8.084211-18.863158 2.694737-26.947368-61.978947-67.368421-148.210526-107.789474-239.831579-107.789474-91.621053 0-180.547368 40.421053-239.831579 107.789474-8.084211 8.084211-5.389474 18.863158 2.694737 26.947368 2.694737 2.694737 8.084211 5.389474 13.473684 5.389474s10.778947-2.694737 13.473684-5.389474c53.894737-59.284211 132.042105-94.315789 212.884211-94.315789 78.147368-2.694737 153.6 29.642105 207.494737 91.621052z" fill="#101010" p-id="3642"></path></svg>