<?xml version="1.0" standalone="no"?><!DOCTYPE svg PUBLIC "-//W3C//DTD SVG 1.1//EN" "http://www.w3.org/Graphics/SVG/1.1/DTD/svg11.dtd"><svg t="1583512910973" class="icon" viewBox="0 0 1024 1024" version="1.1" xmlns="http://www.w3.org/2000/svg" p-id="5502" xmlns:xlink="http://www.w3.org/1999/xlink" width="200" height="200"><defs><style type="text/css"></style></defs><path d="M867.705263 598.231579zM714.105263 447.326316c-40.421053 0-78.147368 16.168421-107.789474 43.115789-29.642105 29.642105-43.115789 67.368421-43.115789 107.789474 0 83.536842 70.063158 150.905263 153.6 153.6h2.694737c40.421053 0 78.147368-16.168421 105.094737-43.11579 29.642105-29.642105 43.115789-67.368421 43.115789-107.789473 0-86.231579-70.063158-153.6-153.6-153.6z m115.873684 150.905263c0 29.642105-10.778947 59.284211-32.336842 80.842105s-48.505263 32.336842-80.842105 32.336842c-61.978947 0-115.873684-51.2-115.873684-115.873684 0-29.642105 10.778947-59.284211 32.336842-80.842105 21.557895-21.557895 48.505263-32.336842 78.147368-32.336842 67.368421 2.694737 118.568421 53.894737 118.568421 115.873684z" fill="#101010" p-id="5503"></path><path d="M716.8 512c-10.778947 0-18.863158 8.084211-18.863158 18.863158V565.894737c0 10.778947 8.084211 18.863158 18.863158 18.863158 10.778947 0 18.863158-8.084211 18.863158-18.863158v-35.031579c0-10.778947-8.084211-21.557895-18.863158-18.863158zM662.905263 606.315789l-18.863158 29.642106c-5.389474 8.084211-2.694737 21.557895 5.389474 26.947368 2.694737 2.694737 8.084211 2.694737 10.778947 2.694737 5.389474 0 10.778947-2.694737 16.168421-8.084211l18.863158-29.642105c5.389474-8.084211 2.694737-21.557895-5.389473-26.947368-10.778947-5.389474-21.557895-2.694737-26.947369 5.389473zM770.694737 606.315789c-5.389474-8.084211-18.863158-10.778947-26.947369-5.389473-8.084211 5.389474-10.778947 18.863158-5.389473 26.947368l18.863158 29.642105c2.694737 5.389474 10.778947 8.084211 16.168421 8.084211 2.694737 0 8.084211 0 10.778947-2.694737 8.084211-5.389474 10.778947-18.863158 5.389474-26.947368l-18.863158-29.642106zM970.105263 751.831579c-10.778947 0-18.863158 8.084211-18.863158 18.863158 0 10.778947-8.084211 18.863158-18.863158 18.863158H91.621053c-10.778947 0-18.863158-8.084211-18.863158-18.863158 0-10.778947-8.084211-18.863158-18.863158-18.863158s-18.863158 8.084211-18.863158 18.863158c0 29.642105 24.252632 56.589474 56.589474 56.589474h840.757894c29.642105 0 56.589474-24.252632 56.589474-56.589474 0-8.084211-8.084211-18.863158-18.863158-18.863158zM970.105263 466.189474h-37.726316c-10.778947 0-18.863158 8.084211-18.863158 18.863158s8.084211 18.863158 18.863158 18.863157H970.105263c10.778947 0 18.863158-8.084211 18.863158-18.863157s-8.084211-18.863158-18.863158-18.863158zM970.105263 522.778947h-37.726316c-10.778947 0-18.863158 8.084211-18.863158 18.863158s8.084211 18.863158 18.863158 18.863158H970.105263c10.778947 0 18.863158-8.084211 18.863158-18.863158s-8.084211-18.863158-18.863158-18.863158zM970.105263 579.368421h-37.726316c-10.778947 0-18.863158 8.084211-18.863158 18.863158s8.084211 18.863158 18.863158 18.863158H970.105263c10.778947 0 18.863158-8.084211 18.863158-18.863158s-8.084211-18.863158-18.863158-18.863158zM970.105263 635.957895h-37.726316c-10.778947 0-18.863158 8.084211-18.863158 18.863158s8.084211 18.863158 18.863158 18.863158H970.105263c10.778947 0 18.863158-8.084211 18.863158-18.863158s-8.084211-18.863158-18.863158-18.863158zM970.105263 692.547368h-37.726316c-10.778947 0-18.863158 8.084211-18.863158 18.863158s8.084211 18.863158 18.863158 18.863158H970.105263c10.778947 0 18.863158-8.084211 18.863158-18.863158s-8.084211-18.863158-18.863158-18.863158zM53.894737 441.936842c10.778947 0 18.863158-8.084211 18.863158-18.863158 0-10.778947 8.084211-18.863158 18.863158-18.863158h843.452631c10.778947 0 18.863158 8.084211 18.863158 18.863158 0 10.778947 8.084211 18.863158 18.863158 18.863158s18.863158-8.084211 18.863158-18.863158c0-10.778947-2.694737-18.863158-8.084211-26.947368l-2.694736-2.694737-83.536843-142.821053c-40.421053-75.452632-67.368421-97.010526-129.347368-97.010526H258.694737c-59.284211 0-88.926316 21.557895-129.347369 97.010526l-86.231579 145.51579c-5.389474 8.084211-8.084211 16.168421-8.08421 26.947368s8.084211 18.863158 18.863158 18.863158zM269.473684 188.631579h40.421053l-56.589474 177.852632H204.8L269.473684 188.631579z m132.042105 0l-43.115789 177.852632H296.421053L353.010526 188.631579h48.505263z m177.852632 0l45.810526 177.852632h-229.052631L439.242105 188.631579h140.126316z m86.231579 0l56.589474 177.852632h-59.284211L617.094737 188.631579h48.505263z m80.842105 0l70.063158 177.852632h-56.589474l-53.894736-177.852632h40.421052zM862.315789 266.778947l59.284211 99.705264h-61.978947L789.557895 188.631579c24.252632 5.389474 43.115789 21.557895 72.757894 78.147368zM229.052632 191.326316l-64.673685 175.157895H102.4L161.684211 266.778947C188.631579 215.578947 204.8 196.715789 229.052632 191.326316zM53.894737 503.915789h37.726316c10.778947 0 18.863158-8.084211 18.863158-18.863157s-8.084211-18.863158-18.863158-18.863158H53.894737c-10.778947 0-18.863158 8.084211-18.863158 18.863158s8.084211 18.863158 18.863158 18.863157zM53.894737 560.505263h37.726316c10.778947 0 18.863158-8.084211 18.863158-18.863158s-8.084211-18.863158-18.863158-18.863158H53.894737c-10.778947 0-18.863158 8.084211-18.863158 18.863158s8.084211 18.863158 18.863158 18.863158zM53.894737 617.094737h37.726316c10.778947 0 18.863158-8.084211 18.863158-18.863158s-8.084211-18.863158-18.863158-18.863158H53.894737c-10.778947 0-18.863158 8.084211-18.863158 18.863158s8.084211 18.863158 18.863158 18.863158zM53.894737 673.684211h37.726316c10.778947 0 18.863158-8.084211 18.863158-18.863158s-8.084211-18.863158-18.863158-18.863158H53.894737c-10.778947 0-18.863158 8.084211-18.863158 18.863158s8.084211 18.863158 18.863158 18.863158zM53.894737 730.273684h37.726316c10.778947 0 18.863158-8.084211 18.863158-18.863158s-8.084211-18.863158-18.863158-18.863158H53.894737c-10.778947 0-18.863158 8.084211-18.863158 18.863158s8.084211 18.863158 18.863158 18.863158zM862.315789 848.842105h-88.926315c-10.778947 0-18.863158 8.084211-18.863158 18.863158s8.084211 18.863158 18.863158 18.863158H862.315789c10.778947 0 18.863158-8.084211 18.863158-18.863158s-8.084211-18.863158-18.863158-18.863158zM250.610526 848.842105H161.684211c-10.778947 0-18.863158 8.084211-18.863158 18.863158s8.084211 18.863158 18.863158 18.863158h88.926315c10.778947 0 18.863158-8.084211 18.863158-18.863158s-8.084211-18.863158-18.863158-18.863158zM474.273684 538.947368c10.778947 0 18.863158-8.084211 18.863158-18.863157s-8.084211-18.863158-18.863158-18.863158h-105.094737c-10.778947 0-18.863158 8.084211-18.863158 18.863158s8.084211 18.863158 18.863158 18.863157h105.094737zM242.526316 590.147368c40.421053 0 70.063158-32.336842 70.063158-70.063157 0-40.421053-32.336842-70.063158-70.063158-70.063158s-70.063158 32.336842-70.063158 70.063158c0 37.726316 32.336842 70.063158 70.063158 70.063157z m0-102.4c18.863158 0 32.336842 16.168421 32.336842 32.336843 0 18.863158-16.168421 32.336842-32.336842 32.336842s-32.336842-13.473684-32.336842-32.336842 13.473684-32.336842 32.336842-32.336843zM169.768421 730.273684c0 10.778947 8.084211 18.863158 18.863158 18.863158h293.726316c10.778947 0 18.863158-8.084211 18.863158-18.863158v-99.705263c0-10.778947-8.084211-18.863158-18.863158-18.863158H188.631579c-10.778947 0-18.863158 8.084211-18.863158 18.863158v99.705263z m37.726316-80.842105h256v61.978947H207.494737v-61.978947z" fill="#101010" p-id="5504"></path></svg>