<?xml version="1.0" standalone="no"?><!DOCTYPE svg PUBLIC "-//W3C//DTD SVG 1.1//EN" "http://www.w3.org/Graphics/SVG/1.1/DTD/svg11.dtd"><svg t="1583512792137" class="icon" viewBox="0 0 1024 1024" version="1.1" xmlns="http://www.w3.org/2000/svg" p-id="1889" xmlns:xlink="http://www.w3.org/1999/xlink" width="200" height="200"><defs><style type="text/css"></style></defs><path d="M479.663158 396.126316h67.368421c16.168421 0 32.336842-13.473684 32.336842-32.336842V296.421053c0-16.168421-13.473684-32.336842-32.336842-32.336842h-67.368421c-16.168421 0-32.336842 13.473684-32.336842 32.336842v67.368421c0 18.863158 13.473684 32.336842 32.336842 32.336842z m5.389474-91.621053h53.894736v53.894737h-53.894736v-53.894737zM291.031579 396.126316h67.368421c16.168421 0 32.336842-13.473684 32.336842-32.336842V296.421053c0-16.168421-13.473684-32.336842-32.336842-32.336842h-67.368421c-16.168421 0-32.336842 13.473684-32.336842 32.336842v67.368421c0 18.863158 16.168421 32.336842 32.336842 32.336842z m5.389474-91.621053h53.894736v53.894737h-53.894736v-53.894737zM665.6 396.126316h67.368421c16.168421 0 32.336842-13.473684 32.336842-32.336842V296.421053c0-16.168421-13.473684-32.336842-32.336842-32.336842h-67.368421c-16.168421 0-32.336842 13.473684-32.336842 32.336842v67.368421c0 18.863158 16.168421 32.336842 32.336842 32.336842z m5.389474-91.621053h53.894737v53.894737h-53.894737v-53.894737zM479.663158 538.947368h67.368421c16.168421 0 32.336842-13.473684 32.336842-32.336842v-67.368421c0-16.168421-13.473684-32.336842-32.336842-32.336842h-67.368421c-16.168421 0-32.336842 13.473684-32.336842 32.336842v67.368421c0 16.168421 13.473684 32.336842 32.336842 32.336842z m5.389474-94.315789h53.894736v53.894737h-53.894736v-53.894737zM291.031579 538.947368h67.368421c16.168421 0 32.336842-13.473684 32.336842-32.336842v-67.368421c0-16.168421-13.473684-32.336842-32.336842-32.336842h-67.368421c-16.168421 0-32.336842 13.473684-32.336842 32.336842v67.368421c0 16.168421 16.168421 32.336842 32.336842 32.336842z m5.389474-94.315789h53.894736v53.894737h-53.894736v-53.894737zM665.6 538.947368h67.368421c16.168421 0 32.336842-13.473684 32.336842-32.336842v-67.368421c0-16.168421-13.473684-32.336842-32.336842-32.336842h-67.368421c-16.168421 0-32.336842 13.473684-32.336842 32.336842v67.368421c0 16.168421 16.168421 32.336842 32.336842 32.336842z m5.389474-94.315789h53.894737v53.894737h-53.894737v-53.894737zM479.663158 679.073684h67.368421c16.168421 0 32.336842-13.473684 32.336842-32.336842v-67.368421c0-16.168421-13.473684-32.336842-32.336842-32.336842h-67.368421c-16.168421 0-32.336842 13.473684-32.336842 32.336842V646.736842c0 18.863158 13.473684 32.336842 32.336842 32.336842z m5.389474-91.621052h53.894736v53.894736h-53.894736v-53.894736zM291.031579 679.073684h67.368421c16.168421 0 32.336842-13.473684 32.336842-32.336842v-67.368421c0-16.168421-13.473684-32.336842-32.336842-32.336842h-67.368421c-16.168421 0-32.336842 13.473684-32.336842 32.336842V646.736842c0 18.863158 16.168421 32.336842 32.336842 32.336842z m5.389474-91.621052h53.894736v53.894736h-53.894736v-53.894736zM665.6 679.073684h67.368421c16.168421 0 32.336842-13.473684 32.336842-32.336842v-67.368421c0-16.168421-13.473684-32.336842-32.336842-32.336842h-67.368421c-16.168421 0-32.336842 13.473684-32.336842 32.336842V646.736842c0 18.863158 16.168421 32.336842 32.336842 32.336842z m5.389474-91.621052h53.894737v53.894736h-53.894737v-53.894736zM479.663158 821.894737h67.368421c16.168421 0 32.336842-13.473684 32.336842-32.336842v-67.368421c0-16.168421-13.473684-32.336842-32.336842-32.336842h-67.368421c-16.168421 0-32.336842 13.473684-32.336842 32.336842v67.368421c0 18.863158 13.473684 32.336842 32.336842 32.336842z m5.389474-91.621053h53.894736v53.894737h-53.894736v-53.894737zM291.031579 821.894737h67.368421c16.168421 0 32.336842-13.473684 32.336842-32.336842v-67.368421c0-16.168421-13.473684-32.336842-32.336842-32.336842h-67.368421c-16.168421 0-32.336842 13.473684-32.336842 32.336842v67.368421c0 18.863158 16.168421 32.336842 32.336842 32.336842z m5.389474-91.621053h53.894736v53.894737h-53.894736v-53.894737zM665.6 821.894737h67.368421c16.168421 0 32.336842-13.473684 32.336842-32.336842v-67.368421c0-16.168421-13.473684-32.336842-32.336842-32.336842h-67.368421c-16.168421 0-32.336842 13.473684-32.336842 32.336842v67.368421c0 18.863158 16.168421 32.336842 32.336842 32.336842z m5.389474-91.621053h53.894737v53.894737h-53.894737v-53.894737z" p-id="1890"></path><path d="M776.084211 35.031579H247.915789c-43.115789 0-78.147368 35.031579-78.147368 78.147368v797.642106c0 43.115789 35.031579 78.147368 78.147368 78.147368h528.168422c43.115789 0 78.147368-35.031579 78.147368-78.147368V113.178947c0-43.115789-35.031579-78.147368-78.147368-78.147368z m40.421052 835.368421H207.494737V202.105263h609.010526v668.294737zM207.494737 158.989474h609.010526v8.08421H207.494737v-8.08421z m40.421052-86.231579h528.168422c21.557895 0 40.421053 18.863158 40.421052 40.421052v8.084211H207.494737v-8.084211c0-21.557895 18.863158-40.421053 40.421052-40.421052z m528.168422 878.48421H247.915789c-21.557895 0-40.421053-18.863158-40.421052-40.421052v-2.694737h609.010526v2.694737c0 21.557895-18.863158 40.421053-40.421052 40.421052z" p-id="1891"></path></svg>