<?xml version="1.0" encoding="UTF-8"?>
<svg width="115px" height="100px" viewBox="0 0 115 100" version="1.1" xmlns="http://www.w3.org/2000/svg" xmlns:xlink="http://www.w3.org/1999/xlink">
    <!-- Generator: Sketch 53.1 (72631) - https://sketchapp.com -->
    <title>Slice 1</title>
    <desc>Created with Sketch.</desc>
    <g id="Page-1" stroke="none" stroke-width="1" fill="none" fill-rule="evenodd">
        <g id="当前状态">
            <path d="M4,-7.01934361e-11 L111,-9.1844754e-11 C113.209139,-1.07016191e-10 115,1.790861 115,4 L115,96 C115,98.209139 113.209139,100 111,100 L4,100 C1.790861,100 -2.66451624e-10,98.209139 -2.66459743e-10,96 L-2.88097546e-10,4 C-2.88097816e-10,1.790861 1.790861,-9.18443482e-11 4,-9.1844754e-11 Z" id="合并形状" fill-opacity="0.8" fill="#03143D"></path>
            <path d="M-2.90494894e-10,10 L-2.91906055e-10,4 C-2.91906325e-10,1.790861 1.790861,-9.18443482e-11 4,-9.1844754e-11 L10,-7.14075286e-11 L10,1.18681319 L4.1875,1.18681319 C2.53064575,1.18681319 1.1875,2.52995894 1.1875,4.18681319 L1.1875,10 L-2.9049485e-10,10 Z M-2.71683787e-10,90 L1.1875,90 L1.1875,95.8131868 C1.1875,97.4700411 2.53064575,98.8131868 4.1875,98.8131868 L10,98.8131868 L10,100 L4,100 C1.790861,100 -2.70260133e-10,98.209139 -2.70268252e-10,96 L-2.71679413e-10,90 Z M115,10 L113.8125,10 L113.8125,4.18681319 C113.8125,2.52995894 112.469354,1.18681319 110.8125,1.18681319 L105,1.18681319 L105,-9.06306141e-11 L111,-9.1844754e-11 C113.209139,-1.07016191e-10 115,1.790861 115,4 L115,10 Z M115,90 L115,96 C115,98.209139 113.209139,100 111,100 L105,100 L105,98.8131868 L110.8125,98.8131868 C112.469354,98.8131868 113.8125,97.4700411 113.8125,95.8131868 L113.8125,90 L115,90 Z" id="外形" fill="#0094FF"></path>
        </g>
    </g>
</svg>