<?xml version="1.0" standalone="no"?><!DOCTYPE svg PUBLIC "-//W3C//DTD SVG 1.1//EN" "http://www.w3.org/Graphics/SVG/1.1/DTD/svg11.dtd"><svg t="1578046569432" class="icon" viewBox="0 0 1024 1024" version="1.1" xmlns="http://www.w3.org/2000/svg" p-id="1502" xmlns:xlink="http://www.w3.org/1999/xlink" width="200" height="200"><defs><style type="text/css"></style></defs><path d="M522.778947 544.336842h223.663158c16.168421 0 29.642105-13.473684 29.642106-29.642105V231.747368c0-16.168421-13.473684-29.642105-29.642106-29.642105h-223.663158c-16.168421 0-29.642105 13.473684-29.642105 29.642105V512c0 18.863158 13.473684 32.336842 29.642105 32.336842z m8.084211-37.726316v-161.68421h207.494737v161.68421h-207.494737z m207.494737-269.473684v67.368421h-207.494737V237.136842h207.494737z" fill="#ffffff" p-id="1503"></path><path d="M603.621053 358.4h-40.421053c-10.778947 0-18.863158 8.084211-18.863158 18.863158s8.084211 18.863158 18.863158 18.863158h40.421053c10.778947 0 18.863158-8.084211 18.863158-18.863158s-8.084211-18.863158-18.863158-18.863158zM703.326316 358.4h-40.421053c-10.778947 0-18.863158 8.084211-18.863158 18.863158s8.084211 18.863158 18.863158 18.863158h40.421053c10.778947 0 18.863158-8.084211 18.863158-18.863158s-8.084211-18.863158-18.863158-18.863158zM603.621053 406.905263h-40.421053c-10.778947 0-18.863158 8.084211-18.863158 18.863158s8.084211 18.863158 18.863158 18.863158h40.421053c10.778947 0 18.863158-8.084211 18.863158-18.863158s-8.084211-18.863158-18.863158-18.863158zM703.326316 406.905263h-40.421053c-10.778947 0-18.863158 8.084211-18.863158 18.863158s8.084211 18.863158 18.863158 18.863158h40.421053c10.778947 0 18.863158-8.084211 18.863158-18.863158s-8.084211-18.863158-18.863158-18.863158zM603.621053 458.105263h-40.421053c-10.778947 0-18.863158 8.084211-18.863158 18.863158s8.084211 18.863158 18.863158 18.863158h40.421053c10.778947 0 18.863158-8.084211 18.863158-18.863158s-8.084211-18.863158-18.863158-18.863158zM703.326316 458.105263h-40.421053c-10.778947 0-18.863158 8.084211-18.863158 18.863158s8.084211 18.863158 18.863158 18.863158h40.421053c10.778947 0 18.863158-8.084211 18.863158-18.863158s-8.084211-18.863158-18.863158-18.863158z" fill="#ffffff" p-id="1504"></path><path d="M824.589474 129.347368l-51.2-29.642105v-13.473684c0-26.947368-21.557895-51.2-51.2-51.2H301.810526c-26.947368 0-51.2 21.557895-51.2 51.2v16.168421l-51.2 26.947368c-16.168421 10.778947-24.252632 26.947368-24.252631 43.11579v679.073684c0 18.863158 10.778947 35.031579 24.252631 43.11579l51.2 29.642105v16.168421c0 26.947368 21.557895 51.2 51.2 51.2h420.378948c26.947368 0 51.2-21.557895 51.2-51.2v-16.168421l51.2-29.642105c16.168421-8.084211 24.252632-24.252632 24.252631-43.11579V172.463158c0-16.168421-8.084211-32.336842-24.252631-43.11579zM212.884211 172.463158c0-2.694737 2.694737-8.084211 5.389473-10.778947l61.978948-35.031579 2.694736-2.694737 2.694737-2.694737 2.694737-2.694737s0-2.694737 2.694737-2.694737v-2.694737-29.642105c0-8.084211 5.389474-13.473684 13.473684-13.473684h420.378948c8.084211 0 13.473684 5.389474 13.473684 13.473684V115.873684s0 2.694737 2.694737 2.694737c0 0 0 2.694737 2.694736 2.694737l2.694737 2.694737 2.694737 2.694737L805.726316 161.684211c2.694737 2.694737 5.389474 5.389474 5.389473 10.778947v565.894737H212.884211v-565.894737z m592.842105 689.852631l-61.978948 35.031579-2.694736 2.694737-2.694737 2.694737-2.694737 2.694737s0 2.694737-2.694737 2.694737v32.336842c0 8.084211-5.389474 13.473684-13.473684 13.473684H301.810526c-8.084211 0-13.473684-5.389474-13.473684-13.473684v-26.947369-2.694736-2.694737s0-2.694737-2.694737-2.694737c0 0 0-2.694737-2.694737-2.694737l-2.694736-2.694737-2.694737-2.694737L218.273684 862.315789c-2.694737-2.694737-5.389474-5.389474-5.389473-10.778947v-75.452631h598.231578v75.452631c0 2.694737-2.694737 8.084211-5.389473 10.778947z" fill="#ffffff" p-id="1505"></path></svg>