<?xml version="1.0" standalone="no"?><!DOCTYPE svg PUBLIC "-//W3C//DTD SVG 1.1//EN" "http://www.w3.org/Graphics/SVG/1.1/DTD/svg11.dtd"><svg t="1578045734562" class="icon" viewBox="0 0 1024 1024" version="1.1" xmlns="http://www.w3.org/2000/svg" p-id="1145" xmlns:xlink="http://www.w3.org/1999/xlink" width="200" height="200"><defs><style type="text/css"></style></defs><path d="M210.189474 137.431579H134.736842c-10.778947 0-18.863158 8.084211-18.863158 18.863158s10.778947 18.863158 18.863158 18.863158h53.894737v88.926316H145.515789c-10.778947 0-18.863158 8.084211-18.863157 18.863157V323.368421l-61.978948 45.810526c-18.863158 13.473684-29.642105 35.031579-29.642105 56.589474v88.926316c0 21.557895 10.778947 43.115789 29.642105 56.589474L126.652632 619.789474v53.894737c0 10.778947 8.084211 18.863158 18.863157 18.863157h45.810527V781.473684H145.515789c-10.778947 0-18.863158 8.084211-18.863157 18.863158 0 10.778947 8.084211 18.863158 18.863157 18.863158h64.673685c5.389474 0 10.778947-2.694737 13.473684-5.389474 2.694737-2.694737 5.389474-8.084211 5.389474-13.473684V673.684211c0-10.778947-8.084211-18.863158-18.863158-18.863158H164.378947V299.115789h45.810527c10.778947 0 18.863158-8.084211 18.863158-18.863157V156.294737c0-10.778947-8.084211-18.863158-18.863158-18.863158zM126.652632 571.284211l-40.421053-29.642106c-8.084211-5.389474-13.473684-16.168421-13.473684-26.947368v-88.926316c0-10.778947 5.389474-21.557895 13.473684-26.947368l40.421053-29.642106v202.105264zM953.936842 299.115789l-61.978947-45.810526H889.263158c-2.694737 0-5.389474-2.694737-8.084211-2.694737H512 503.915789c-2.694737 0-5.389474 2.694737-5.389473 5.389474l-86.231579 86.231579h-29.642105v-61.978947c0-10.778947-8.084211-18.863158-18.863158-18.863158h-45.810527V175.157895h53.894737c10.778947 0 18.863158-8.084211 18.863158-18.863158s-8.084211-18.863158-18.863158-18.863158h-72.757895c-10.778947 0-18.863158 8.084211-18.863157 18.863158v126.652631c0 10.778947 8.084211 18.863158 18.863157 18.863158h45.810527v353.010527h-45.810527c-10.778947 0-18.863158 8.084211-18.863157 18.863158v126.652631c0 5.389474 2.694737 10.778947 5.389473 13.473684 2.694737 2.694737 8.084211 5.389474 13.473684 5.389474h64.673685c10.778947 0 18.863158-8.084211 18.863158-18.863158 0-10.778947-8.084211-18.863158-18.863158-18.863158h-45.810527v-88.926316h45.810527c10.778947 0 18.863158-8.084211 18.863158-18.863157v-72.757895h29.642105l86.231579 86.231579c2.694737 2.694737 8.084211 5.389474 13.473684 5.389473h75.452632v75.452632h-59.284211c-21.557895 0-40.421053 18.863158-40.421053 40.421053v40.421052c0 21.557895 18.863158 40.421053 40.421053 40.421053h377.263158c21.557895 0 40.421053-18.863158 40.421053-40.421053V808.421053c0-21.557895-18.863158-40.421053-40.421053-40.421053h-56.589474v-75.452632h43.11579l61.978947-45.810526c21.557895-16.168421 35.031579-43.115789 35.031579-72.757895V377.263158c0-32.336842-13.473684-59.284211-35.031579-78.147369z m-571.28421 80.842106h37.726315c2.694737 0 5.389474 0 8.084211-2.694737 2.694737 0 5.389474-2.694737 5.389474-5.389474l59.28421-59.28421v312.589473L433.852632 565.894737l-5.389474-5.389474c-2.694737 0-5.389474-2.694737-8.084211-2.694737h-37.726315v-177.852631z m148.210526-91.621053h328.757895v366.484211H530.863158V288.336842zM905.431579 808.421053v40.421052s0 2.694737-2.694737 2.694737l-379.957895-2.694737 2.694737-43.115789 379.957895 2.694737z m-94.31579-40.421053h-185.936842v-75.452632h185.936842v75.452632z m140.126316-199.410526c0 16.168421-8.084211 32.336842-21.557894 43.115789l-32.336843 24.252632V307.2l32.336843 24.252632c13.473684 10.778947 21.557895 24.252632 21.557894 43.115789v194.021053z" fill="#FFFFFF" p-id="1146"></path></svg>