<?xml version="1.0" standalone="no"?><!DOCTYPE svg PUBLIC "-//W3C//DTD SVG 1.1//EN" "http://www.w3.org/Graphics/SVG/1.1/DTD/svg11.dtd"><svg t="1578045803901" class="icon" viewBox="0 0 1024 1024" version="1.1" xmlns="http://www.w3.org/2000/svg" p-id="1383" xmlns:xlink="http://www.w3.org/1999/xlink" width="200" height="200"><defs><style type="text/css"></style></defs><path d="M662.905263 579.368421c0-2.694737 0-2.694737-2.694737-5.389474v-2.694736l-2.694737-2.694737s0-2.694737-2.694736-2.694737h-2.694737-2.694737-2.694737-2.694737l-56.589473 8.08421 21.557894-118.568421v-5.389473s0-2.694737-2.694737-2.694737c0 0 0-2.694737-2.694736-2.694737 0-2.694737-2.694737-2.694737-5.389474-5.389474h-2.694737c-2.694737-8.084211-2.694737-8.084211-5.389474-8.08421-8.084211 0-13.473684 2.694737-18.863157 8.08421l-137.431579 212.884211v2.694737s0 2.694737-2.694737 2.694736V665.6s0 2.694737 2.694737 2.694737c0 0 0 2.694737 2.694736 2.694737l2.694737 2.694737h13.473684l56.589474-8.084211-21.557895 118.568421v8.084211s0 2.694737 2.694737 2.694736c0 0 0 2.694737 2.694737 2.694737 0 2.694737 2.694737 2.694737 5.389474 5.389474 2.694737 0 5.389474 2.694737 5.389473 2.694737h2.694737c2.694737 0 5.389474 0 8.084211-2.694737h2.694737c2.694737 0 2.694737-2.694737 5.389473-5.389474l137.431579-212.88421v-2.694737s0-2.694737 2.694737-2.694737v-2.694737 2.694737z m-113.178947 70.063158V646.736842v-2.694737s0-2.694737-2.694737-2.694737c0 0 0-2.694737-2.694737-2.694736l-2.694737-2.694737s-2.694737 0-2.694737-2.694737c0 0-2.694737 0-2.694736-2.694737h-2.694737-2.694737l-40.421053 5.389474 64.673684-99.705263-10.778947 53.894736V598.231579s0 2.694737 2.694737 2.694737c0 0 0 2.694737 2.694737 2.694737l2.694737 2.694736s2.694737 0 2.694736 2.694737c0 0 2.694737 0 2.694737 2.694737H565.894737l40.421052-5.389474-67.368421 99.705264 10.778948-53.894737v-2.694737zM722.189474 177.852632H369.178947c-26.947368 0-48.505263 21.557895-48.505263 48.505263v67.368421c0 26.947368 21.557895 48.505263 48.505263 48.505263h353.010527c26.947368 0 48.505263-21.557895 48.505263-48.505263V226.357895c0-26.947368-21.557895-48.505263-48.505263-48.505263z m0 123.957894H369.178947c-5.389474 0-10.778947-5.389474-10.778947-10.778947V226.357895c0-5.389474 5.389474-10.778947 10.778947-10.778948h353.010527c5.389474 0 10.778947 5.389474 10.778947 10.778948v67.368421c0 5.389474-5.389474 8.084211-10.778947 8.08421z" fill="#101010" p-id="1384"></path><path d="M808.421053 35.031579H285.642105C242.526316 35.031579 207.494737 70.063158 207.494737 110.484211v45.810526h-8.084211c-32.336842 0-59.284211 26.947368-59.28421 59.28421v80.842106c0 32.336842 26.947368 59.284211 59.28421 59.28421h10.778948v312.589474h-10.778948c-32.336842 0-59.284211 26.947368-59.28421 59.28421v80.842106c0 32.336842 26.947368 59.284211 59.28421 59.28421h10.778948v45.810526c0 43.115789 35.031579 75.452632 75.452631 75.452632H808.421053c43.115789 0 75.452632-35.031579 75.452631-75.452632V110.484211c0-40.421053-35.031579-75.452632-75.452631-75.452632zM177.852632 215.578947c0-10.778947 10.778947-21.557895 21.557894-21.557894h10.778948v123.957894h-10.778948c-10.778947 0-21.557895-10.778947-21.557894-21.557894V215.578947z m0 512c0-10.778947 10.778947-21.557895 21.557894-21.557894h10.778948v123.957894h-10.778948c-10.778947 0-21.557895-10.778947-21.557894-21.557894v-80.842106z m668.294736 185.936842c0 21.557895-16.168421 37.726316-37.726315 37.726316H285.642105c-21.557895 0-37.726316-16.168421-37.726316-37.726316V110.484211c0-21.557895 16.168421-37.726316 37.726316-37.726316H808.421053c21.557895 0 37.726316 16.168421 37.726315 37.726316v803.031578z" fill="#FFFFFF" p-id="1385"></path></svg>